<?xml version="1.0" encoding="utf-8"?>
<!-- Generator: Adobe Illustrator 17.1.0, SVG Export Plug-In . SVG Version: 6.00 Build 0)  -->
<!DOCTYPE svg PUBLIC "-//W3C//DTD SVG 1.1//EN" "http://www.w3.org/Graphics/SVG/1.1/DTD/svg11.dtd">
<svg version="1.1" id="Layer_1" xmlns="http://www.w3.org/2000/svg" xmlns:xlink="http://www.w3.org/1999/xlink" x="0px" y="0px"
	 viewBox="0 0 960 720" enable-background="new 0 0 960 720" xml:space="preserve">
<g>
	
		<linearGradient id="SVGID_1_" gradientUnits="userSpaceOnUse" x1="14.8" y1="158.65" x2="474.6" y2="158.65" gradientTransform="matrix(0.9496 0 0 -0.9496 29.2641 683.7246)">
		<stop  offset="0" style="stop-color:#FFFFFF"/>
		<stop  offset="0.6776" style="stop-color:#FDFDFD"/>
		<stop  offset="0.9214" style="stop-color:#F6F6F6"/>
		<stop  offset="1" style="stop-color:#F2F2F2"/>
	</linearGradient>
	
		<rect x="43.3" y="360" fill="url(#SVGID_1_)" stroke="#EDEDED" stroke-width="2.2399" stroke-miterlimit="10" width="436.6" height="346.1"/>
	
		<linearGradient id="SVGID_2_" gradientUnits="userSpaceOnUse" x1="929.1515" y1="711.655" x2="479.8485" y2="334.645" gradientTransform="matrix(0.9496 0 0 -0.9496 29.2641 683.7246)">
		<stop  offset="0" style="stop-color:#FFFFFF"/>
		<stop  offset="0.5538" style="stop-color:#FCFCFC"/>
		<stop  offset="1" style="stop-color:#F2F2F2"/>
	</linearGradient>
	
		<rect x="480" y="13.9" fill="url(#SVGID_2_)" stroke="#EDEDED" stroke-width="2.2399" stroke-miterlimit="10" width="436.6" height="346.1"/>
	
		<linearGradient id="SVGID_3_" gradientUnits="userSpaceOnUse" x1="15761.5635" y1="370.6693" x2="15932.499" y2="-98.9693" gradientTransform="matrix(-0.9496 0 0 0.9496 15746.8877 404.0623)">
		<stop  offset="0.4406" style="stop-color:#FFFFFF"/>
		<stop  offset="0.7986" style="stop-color:#FDFDFD"/>
		<stop  offset="0.9274" style="stop-color:#F6F6F6"/>
		<stop  offset="0.9689" style="stop-color:#F2F2F2"/>
	</linearGradient>
	
		<rect x="480" y="360" fill="url(#SVGID_3_)" stroke="#EDEDED" stroke-width="2.2399" stroke-miterlimit="10" width="436.6" height="346.1"/>
	
		<linearGradient id="SVGID_4_" gradientUnits="userSpaceOnUse" x1="159.2328" y1="288.3308" x2="330.1672" y2="757.9692" gradientTransform="matrix(0.9496 0 0 -0.9496 29.2641 683.7246)">
		<stop  offset="0" style="stop-color:#F2F2F2"/>
		<stop  offset="0.4406" style="stop-color:#FFFFFF"/>
		<stop  offset="0.7504" style="stop-color:#FBFBFB"/>
		<stop  offset="1" style="stop-color:#F2F2F2"/>
	</linearGradient>
	
		<rect x="43.3" y="13.9" fill="url(#SVGID_4_)" stroke="#EDEDED" stroke-width="2.2399" stroke-miterlimit="10" width="436.6" height="346.1"/>
	<polyline fill="none" stroke="#D4D4D4" stroke-width="3" stroke-miterlimit="10" points="480,706.1 480.5,361.1 916.6,361.1 	"/>
</g>
<g>
	<g>
		<rect x="50.5" y="22" fill="#F7F5DF" width="858.8" height="675.9"/>
		<path fill="#FFFFFF" d="M46.1,703.1L45.5,17.6l868.3-0.7l0.6,685.4L46.1,703.1z M55,27.1l0.5,666.4l849.3-0.7l-0.5-666.4L55,27.1z
			"/>
	</g>
	<g>
		<g>
			<path fill="#FFFFFF" d="M806.6,308.1c-2.1-2.9-4.4-6-6.6-8.9c-5.3-7-10.8-14.3-14.1-22.2c-3.7-8.9,0.8-20.1,4.3-29.2l0.6-1.5
				c16.4-41.8,15.6-63.4,12.6-79.2c-5.2-27.6-24.8-50.3-55.1-64c-20.5-9.2-44.2-13.9-70.5-13.9c-30.6,0-63.2,6.6-91.9,18.7
				c-57.1,23.7-101.7,71.6-122.3,131.5c-9.7,28.1-14.4,58.7-14.1,91c0.2,21.9,3.7,43.6,7.2,64.5c1.3,8.1,2.7,16.4,3.9,24.7
				c3.2,23.3,6.6,57.7-2.1,89.3c-7.5,27.3-25.5,46.8-52.2,56.4c-18.8,6.7-40.3,10.1-65.8,10.1c-8.8,0-74.1,0.6-98.9-37.4
				c-12.5-19.3-8.4-51.1-19.1-72.4c-7.5-14.8-14.1-28.5-23.2-40.8c-6-8.1-16.2-16.3-19.1-25.7c-1.5-4.9-1.1-9.1,1.2-12.2
				c2.7-3.6,8-5.7,14.5-5.7c8.3,0,16.1,3.1,20.1,8.1c7.4,9,15,30.9,20.3,45.1c4.4,11.6,9.1,23.4,14.1,34.5
				c19.2,41.7,49,57.2,88.3,57.2c16.7,0,32.7-3.8,46-11.3c39.3-22.3,51.8-65.4,51.8-112.5c0-50-7.7-86.4-33.5-114
				c-17.6-18.8-39.7-33.4-67.9-41.5c-27.4-7.8-54.1-8.7-86.2-9.1c-5.8-0.1-18.7,0.9-42.6-3.3L206,234c-7.9-1.3-21.1-3.6-25.5-11
				c-3.5-7.3-3.4-15.3,3.8-21.4c7-6,19.3-6.4,28.2-6.7h0.5c1.6-0.1,3.3-0.1,4.9-0.1c27.7,0,54.4,8.2,80.1,16.1
				c5.3,1.6,10.8,3.3,16.3,4.9c12.4,3.7,31.8,8,53.6,8c19.8,0,37-3.7,51-10.9c16.3-8.5,27.9-21.6,34.4-39
				c5.1-13.9,6.4-29.8,3.6-47.6l-0.8-5.3l-69-0.1l0.8,3.1c2,8.6,5.3,23.1-4,26.2c-5,1.7-10.4,2.6-16.3,2.6c-8.5,0-17.2-1.7-24.6-3.4
				c-8.7-2-17.5-4.9-25.9-7.8c-6.1-2-12.3-4.1-18.6-5.9c-12.5-3.5-24.2-6.2-35.8-8.3c-15-2.7-30.5-4.1-44.7-4.1
				c-66.7,0.1-92.3,28.6-102,52.4c-6.5,15.8-9.1,32.6-7.8,48.5c1.4,17.4,7.7,33,18.1,45.3c18.8,22,48.1,31.3,69.5,35.1
				c29.7,5.3,48.1,3.8,54.2,3.9c9.9,0.2,20.2,0.4,30.3,1c24.3,1.6,54.3,6.3,70.6,27.3c16,20.8,15.9,50.8,13.6,77.3
				c-0.9,9.8-2.7,22.3-9.3,32.6c-3.1,4.8-8.5,7.3-15.9,7.3c-2.7,0-5.7-0.3-8.8-0.9c-9.3-1.9-15.4-14.7-17.9-20.2
				c-4.4-9.3-7.8-19.3-11.1-29c-2.6-7.5-5.2-15.3-8.4-22.8c-8.2-19.6-17.8-34.4-29.2-45.4c-16.1-15.5-37.2-24.1-62.7-26.4
				c-32.9-2.8-64.8,14.8-76.4,32.2c-3.4,5-9.2,15.5-11.4,21.1c-4.2,10.8-6,23-5.3,36.1c0.9,17.4,9.6,39.4,21.5,53.7
				c12.5,15,23.2,28.6,26.8,42.1l0.1,0.3c2.5,7.8,6.6,33.1,7.3,37.8c6.5,44.3,38.1,75,63.4,89.5c31.3,17.9,79.1,25,110.4,25
				c15.2,0,30.4-1.1,45.4-3.3c32.5-4.4,60.3-14,82.5-28.6c23.9-15.7,42.1-37.7,53.9-65.5c10.4-24.4,15.9-52.7,16-84
				c0.2-29.6-4.4-57.3-9.2-86.5c-0.6-3.2-1-6.6-1.6-9.8c-5.2-32.2-4.7-62.3,1.8-89.6c7.7-32.9,24.4-61.6,46.9-81.1
				c25.1-21.6,57.1-34.4,92.6-37c5-0.4,9.6-0.6,14.1-0.6c24.3,0,48.8,6.2,52.8,19.7c3.4,11.5-2.5,24.4-7.2,35.6
				c-1.1,2.7-2.2,5.2-3.1,7.7c-4.7,12.4-7.4,22-8.7,32c-3.4,25.8,4.1,51.6,22.4,76.5c1.6,2.3,3.3,4.7,5,6.9
				c7.8,10.6,15.9,21.7,19,34.4c1.5,6.1,4.7,18.8,0.5,25.6c-1.3,2.3-3.4,3.7-6.2,4.4s-5.9,1-9,1c-7,0-13.2-1.7-17.4-4.8
				c-8.1-6.2-11.1-18.2-13-29.2c-2.4-14-2.4-28.2-2.4-42.1c0-16.4,0-33.4-4-50.1c-5.6-23.4-21.1-44.6-41.2-57
				c-11.5-7-24.9-10.7-38.7-10.6c-43,0-82.3,38.4-91.4,99c-4.1,27.2-4.6,56.8,0.3,81.5c6,30.1,17.6,55.8,34.5,76.6
				c13.4,16.4,29.6,29.7,45.5,42.5c8.5,6.9,17.4,14.1,25.6,21.7c11.8,10.8,19.2,20.4,23.2,30.3c5.1,12.4,5.1,25.6,4.6,40.3v0.9
				l70.2-0.1c0.4,0,0.7-0.2,0.9-0.5c2.6-2.9-0.4-35.8-0.4-36.1c-3.4-26.2-16.3-52.1-37.3-75c-11-12-23.8-22.2-36.2-32.1
				c-10.2-8.2-20.7-16.5-30.2-25.9c-22.3-22.1-32.9-51-32-88.2c0.3-12.9,1.3-29.6,7.4-44.3c2.8-6.9,9.6-17.2,16.7-17.2
				c3.6,0,7.4,7,9.3,17.5c2.4,13.1,2.4,27.1,2.3,39c-0.5,34,4.8,61.3,16.2,83.2c12.4,23.9,34.5,42.1,58.9,48.4
				c9.7,2.6,19.5,3.8,29,3.8c23.5,0,44.8-7.7,61.8-22.2c16.6-14.1,26.1-38.3,26.1-66.1C833.9,360.9,824.9,334.7,806.6,308.1z"/>
		</g>
		<g>
			<path fill="#854D76" d="M336.7,639.4c-9,0-10.3-0.3-18.5-1l4.6-56.2c6.7,0.6,6.4,0.9,13.9,0.9c10.7,0,21-0.5,30.4-1.4l5.8,56.1
				C361.5,638.7,349.4,639.3,336.7,639.4z"/>
		</g>
		<g>
			<path fill="#FF3B5C" d="M308.8,637.4c-24.8-2.8-54-9.1-72.1-18.6l26.3-49.9c11.9,6.3,34.5,10.4,52.3,12.5L308.8,637.4z"/>
		</g>
		<g>
			<path fill="#DD7C3C" d="M382,636.5l-7.5-55.9c17.9-2.4,33.4-6.7,46-13l24.9,50.6C427.3,627.1,406,633.2,382,636.5z"/>
		</g>
		<g>
			<path fill="#50B5DD" d="M454.4,613.4l-28.2-48.8c12.8-7.4,22.6-17,29.7-29.4l48.8,28.3C492.7,584.3,475.7,601.1,454.4,613.4z"/>
		</g>
		<g>
			<path fill="#17CF88" d="M227.5,613.5c-21.2-13.4-37.1-32-47.3-55.3l51.7-22.6c5.7,12.9,14.1,22.8,25.7,30.2L227.5,613.5z"/>
		</g>
		<g>
			<path fill="#50B5DD" d="M679.1,596.5c0.7-19-2.4-32.1-8.8-43.7l48.3-28.5c12.6,18.9,18.1,42.2,16.9,72.1L679.1,596.5z"/>
		</g>
		<g>
			<path fill="#17CF88" d="M509.7,554.2L459,529.4c6.1-12.4,10-27.6,11.6-45.2l56.2,5.2C524.5,513.9,518.7,535.7,509.7,554.2z"/>
		</g>
		<g>
			<path fill="#50B5DD" d="M176.4,550.4c-3.8-10.8-6.6-24.6-8.1-37.2c-0.9-7.6-2.5-13.8-4.5-20l53.7-18.1c3,9.6,5.3,20.1,6.7,31.2
				c1,8.7,1.9,15.7,4.4,22.7L176.4,550.4z"/>
		</g>
		<g>
			<path fill="#DD7C3C" d="M666.2,546.7c-8.5-12.8-21.2-23.4-34.4-34l35.3-44.1c16,12.9,32.9,27.2,46,46.5L666.2,546.7z"/>
		</g>
		<g>
			<path fill="#8A6C4B" d="M338.7,518.2c-0.9,0-2.8-0.3-3.6-0.3c0,0,3.2-56.1,3.6-56.1c14.1,0,19-4.5,22.7-10.3l48,29.8
				C393.8,505.5,369.4,518.2,338.7,518.2z"/>
		</g>
		<g>
			<path fill="#DD7C3C" d="M324.7,517.3c-27.6-3.9-49.3-19.7-64.5-47l49.3-27.4c7.7,13.8,13.6,17.2,21.8,18.3L324.7,517.3z"/>
		</g>
		<g>
			<path fill="#854D76" d="M625.3,507.6c-14.8-11.8-31.5-25.1-46.1-43l43.8-35.6c10.7,13.2,24.3,24,37.5,34.5L625.3,507.6z"/>
		</g>
		<g>
			<path fill="#DD7C3C" d="M161.6,485.2c-5.1-12.8-12.2-20.3-19.7-29.3c-2.8-3.3-2.8-2.9-5.5-6.6l46.2-32.5c1.9,2.6,0.2,0,2.7,2.9
				c9,10.8,20.2,24.3,28.7,45.4L161.6,485.2z"/>
		</g>
		<g>
			<path fill="#8A6C4B" d="M527.4,480.1l-56.3-3.2c0.3-4.3,0.4-8.8,0.4-13.4c0-11.9-0.9-24.9-2.6-38.6l56-6.8
				c1.9,16,2.9,31.2,2.9,45.4C527.9,469.2,527.7,474.8,527.4,480.1z"/>
		</g>
		<g>
			<path fill="#FF3B5C" d="M414.2,472.1L365,444.8c4.9-10.2,7-22.6,7.8-41.9l56.4,1C429.4,431.6,424.7,453.5,414.2,472.1z"/>
		</g>
		<g>
			<path fill="#50B5DD" d="M746.5,468.9L746.5,468.9c-9.4,0-18.3-1-26.6-3.2l15.7-54.2c3.6,0.9,6.3,1,10.8,1l0,0
				c6.2-0.2,11.7-0.5,15.1-3.3l39.5,40.9C785.4,463.4,767.8,468.9,746.5,468.9z"/>
		</g>
		<g>
			<path fill="#17CF88" d="M709.6,462c-19.4-7.8-41.1-23.6-52.6-60.4l53.8-16.8c6.1,19.5,14.8,23.1,18,24.4L709.6,462z"/>
		</g>
		<g>
			<path fill="#50B5DD" d="M255.6,461.2c-5.1-10.7-9.2-22-13.1-33c-2.8-7.6-5.3-14.8-8.2-21.6l52-21.8c3.4,8.1,6.4,16.3,9.2,24.3
				c3.6,10.1,6.1,18.6,10,26.9L255.6,461.2z"/>
		</g>
		<g>
			<path fill="#FF3B5C" d="M573.1,456.6c-13.5-18.7-22.3-39.3-27-63l55.4-11c3.1,15.6,8.8,29,17.5,41L573.1,456.6z"/>
		</g>
		<g>
			<path fill="#DD7C3C" d="M807.9,443.4l-41.2-38.6c4.1-5.6,4.8-17.3,2.1-28.1l54.7-14.1c1.6,7.9,2.8,17.3,2.8,25.6
				C826.3,409.9,820.3,430.4,807.9,443.4z"/>
		</g>
		<g>
			<path fill="#854D76" d="M130.1,440c-7.9-12.9-14.5-30.4-14.5-45.6c0-15.7,3.5-29.9,12.9-43.8l45.6,33.4c-1.9,3-2.1,5.5-2.1,10.3
				c0,5.6,4.2,12.7,6.4,16.3L130.1,440z"/>
		</g>
		<g>
			<path fill="#854D76" d="M467.9,417.2c-1.1-8.3-2.7-16.9-4.4-25.6c-2.1-10.6-3.7-21.4-4.7-31.8l56.1-5.7c0.9,8.7,2.3,17.7,4,26.7
				c1.9,9.9,3.5,19.5,4.8,28.7L467.9,417.2z"/>
		</g>
		<g>
			<path fill="#17CF88" d="M231.4,400.2c-8.5-17.9-14.7-21.9-21-23.9l16-54.1c35.8,11.5,51,43.4,55.9,53.8L231.4,400.2z"/>
		</g>
		<g>
			<path fill="#17CF88" d="M429.4,394.9l-56.4-0.3c0-0.7,0-1.2,0-1.9c0-17.2-2.4-31.8-7-43.7l52.6-20.5c7.1,18.4,10.8,40,10.8,64.1
				C429.4,393.3,429.4,394.1,429.4,394.9z"/>
		</g>
		<g>
			<path fill="#8A6C4B" d="M654.2,391.5c-3.2-13.7-4.8-29.2-4.8-46.2c0-1.3,0-2.7,0-4.1c0-2.1,0.1-4.2,0-6.2c0-2.1,0-4.2-0.1-6.2
				l56.4-1.1c0,2.4,0.1,4.7,0.1,7.2c0,2.4,0,4.7-0.1,7c0,1,0,2.1,0,3.2c0,12.7,1.1,23.9,3.3,33.4L654.2,391.5z"/>
		</g>
		<g>
			<path fill="#17CF88" d="M544.4,383.9c-1.5-10.3-2.3-21.3-2.3-32.6c0-11.2,0.6-21.9,1.8-31.8l56,6.9c-0.9,7.6-1.4,16-1.4,24.9
				c0,8.6,0.6,16.9,1.7,24.5L544.4,383.9z"/>
		</g>
		<g>
			<path fill="#FF3B5C" d="M178,379.4l-43.7-37.9c23-23.3,49.6-28.4,82.4-21.9l-13.2,55.1C192.8,371.9,183.2,373.8,178,379.4z"/>
		</g>
		<g>
			<path fill="#854D76" d="M767.1,369.7c-3.9-12.5-11.6-23.3-19.8-34.6c-1.6-2.3-3.2-4.5-4.8-6.6l46.1-32.6c1.4,2.1,2.9,4.1,4.5,6.2
				c9.5,13.2,21.4,29.5,28,50.9L767.1,369.7z"/>
		</g>
		<g>
			<path fill="#DD7C3C" d="M458,350.5c-0.6-7.6-0.9-15.3-0.9-22.7c0-13.8,0.9-27.3,2.8-40.4l55.8,8.1c-1.5,10.4-2.3,21.3-2.3,32.3
				c0,6.1,0.3,12.3,0.7,18.6L458,350.5z"/>
		</g>
		<g>
			<path fill="#50B5DD" d="M363.6,343.4c-5.9-12.1-13.8-20.2-26-26.8l25.6-50.7c22.8,12.2,40,29.9,51.1,52.8L363.6,343.4z"/>
		</g>
		<g>
			<path fill="#854D76" d="M649.2,321.3c-1.2-25.3-5-32.1-7.8-35.7l41.5-40.4c15.7,15.9,22.6,38,22.7,73.3L649.2,321.3z"/>
		</g>
		<g>
			<path fill="#FF3B5C" d="M737.1,320.6c-7.7-12-16.6-28.4-16.6-49.9c0-8.9,1.1-17.7,3.6-26.9l54.5,15.4c-1.1,4.5-1.7,7.4-1.7,11.4
				c0,5.4,2.2,11,7.6,19.3L737.1,320.6z"/>
		</g>
		<g>
			<path fill="#50B5DD" d="M601,319.5l-55.6-9.7c5-29.1,15.9-51.6,32.2-66.8l38,41.8C608.6,291.3,603.9,303.3,601,319.5z"/>
		</g>
		<g>
			<path fill="#DD7C3C" d="M331,312.9c-12.3-5.4-27.4-8.7-46.4-10.4l4.6-56.2c25.4,2.1,46.4,6.9,64.6,14.9L331,312.9z"/>
		</g>
		<g>
			<path fill="#854D76" d="M276.9,302.1c-6.3-0.3-12.9-0.5-20.3-0.5h-0.3c-14.1,0-14.3,0.2-25.4-0.7l4.5-56.2
				c9.5,0.8,8.3,0.5,21,0.5c0.1,0,0.2,0,0.3,0c8.5,0,16,0.2,23.3,0.6L276.9,302.1z"/>
		</g>
		<g>
			<path fill="#FF3B5C" d="M222.7,300.1c-33.7,0.4-66.8-13.4-82.5-26.7l39.7-40.8c7,5.4,30.3,11.1,49.1,11.4L222.7,300.1z"/>
		</g>
		<g>
			<path fill="#50B5DD" d="M517,288.2l-55.6-10.1c4-21.8,10.6-42.5,19.8-61.4l50.7,24.7C525.2,255.6,520,271.4,517,288.2z"/>
		</g>
		<g>
			<path fill="#DD7C3C" d="M621.1,280.1l-34.9-43.7c11.4-10.7,25.4-17.9,44.3-17.6c19.3,0.4,34.3,8.1,45.5,18.8l-38.7,41
				C633.5,276.7,626.7,275.8,621.1,280.1z"/>
		</g>
		<g>
			<path fill="#17CF88" d="M133.3,266.3c-13.2-14.9-17.9-31.2-17.9-50.8c0-12,2.1-23.1,6.1-33l51.8,22.7c-3.3,7.9-3.4,15.4,1,22.5
				L133.3,266.3z"/>
		</g>
		<g>
			<path fill="#17CF88" d="M780.5,252.2l-53.3-18.4c1.6-4.7,3.3-9,5-13.3c4.5-11.4,8.3-19.8,8.7-31.9l56.5,0.9
				c-0.9,21.7-7.4,38.4-12.7,51.8C783.2,245,781.7,248.7,780.5,252.2z"/>
		</g>
		<g>
			<path fill="#17CF88" d="M535.3,234.9l-49.7-26.9c10.6-19.7,24-37.2,40-52.2l38.8,41C553,207.8,543.1,220.6,535.3,234.9z"/>
		</g>
		<g>
			<path fill="#FF3B5C" d="M368.7,217.1L368.7,217.1c-11.8,0-24.7-1.6-38.4-4.7l12.6-55c9.5,2.2,18.1,3.3,25.6,3.3l0,0
				c6.1,0,9.6-0.2,13.8-1.6l19.8,52.9C392.2,215.4,380.9,217.1,368.7,217.1z"/>
		</g>
		<g>
			<path fill="#854D76" d="M321.1,210.1c-6.2-1.7-12.5-3.7-19-6c-12-4.1-23.6-7.5-34.8-10.1l13-54.9c12.9,3,26.4,6.9,40.2,11.7
				l0.3,0.1c5.2,1.8,10.4,3.4,15.3,4.7L321.1,210.1z"/>
		</g>
		<g>
			<path fill="#17CF88" d="M412.6,207.2l-22.9-51.4c7.7-5,9.2-16.9,6.9-27.2l53,0.1c0.8,4.9,1,9.8,1.1,14.4
				C451,174.8,436.4,195.6,412.6,207.2z"/>
		</g>
		<g>
			<path fill="#50B5DD" d="M176.7,198.9l-50.4-26.6c17.4-29.2,48.7-37.7,70.9-40.3l6.6,56C193.7,189.3,180.9,192.1,176.7,198.9z"/>
		</g>
		<g>
			<path fill="#FF3B5C" d="M569.7,192.1l-36.8-42.8c16.6-14.2,35.4-25.8,56-34.4l21.7,52.1C595.5,173.3,581.8,181.8,569.7,192.1z"/>
		</g>
		<g>
			<path fill="#DD7C3C" d="M259.8,192.3c-15.7-3.3-30-4.9-42.5-4.9c-2.4,0-4.7,0.1-6.8,0.2l-3-56.3c3.2-0.2,6.6-0.3,9.9-0.3
				c16.4,0,34.7,2.1,54.1,6.2L259.8,192.3z"/>
		</g>
		<g>
			<path fill="#50B5DD" d="M740.7,181.4c-1.6-8.6-5.6-15.5-15.6-19.3l21.7-51.5c30.2,13.6,48.9,36.2,50.6,69.4L740.7,181.4z"/>
		</g>
		<g>
			<path fill="#8A6C4B" d="M617.3,164.5l-19.3-53c19.8-7.2,41.1-11.7,63.2-13.4l4.3,56.3C648.4,155.6,632.3,159.1,617.3,164.5z"/>
		</g>
		<g>
			<path fill="#DD7C3C" d="M717.9,159.8c-10.4-4-23.3-6.1-36.9-6.1c-2.8,0-5.4,0.1-8.1,0.2l-2.2-56.4c3.4-0.1,6.8-0.2,10.3-0.2
				c20.5,0,40.3,3.3,57.1,9.8L717.9,159.8z"/>
		</g>
		<g>
			<g>
				<path fill="#17CF88" d="M382.4,76.2h-9.5c0.3-4-0.3-5.7-1.6-5.7c-1,0-1.5,1.1-1.5,2.8c0,3.4,1.9,4.7,4.7,6.6
					c3.9,2.7,8.5,6.1,8.5,13.9c0,8.3-4.7,13.3-12.3,13.3c-8,0-12.3-5.6-11.9-15.4h9.8c-0.2,4.7,0.7,5.8,2.1,5.8
					c1.5,0,1.9-1.3,1.9-2.7c0-3.2-2.3-4.6-5.5-7.1c-3.7-2.8-7.7-6.5-7.7-13.9c0-8.5,4.6-13,11.8-13C378.6,60.9,383,65.2,382.4,76.2z
					"/>
			</g>
			<g>
				<path fill="#17CF88" d="M400,71.1v35.3h-10V71.1h-6.7v-9.7h23.5v9.7L400,71.1z"/>
			</g>
			<g>
				<path fill="#17CF88" d="M432.9,74.4v32.1h-10V95.2h-4.1v11.2h-10.1V74.4c0-9.2,5.4-13.6,12-13.6
					C427.4,60.8,432.8,65.1,432.9,74.4z M422.9,74.3c0-2.4-0.7-3.9-2.1-3.9s-2.1,1.5-2.1,3.9v11.5h4.1L422.9,74.3z"/>
			</g>
			<g>
				<path fill="#17CF88" d="M448.4,95.2c-0.4,0.1-0.9,0.1-1.2,0.1v11.2h-10v-45h6.2c12.6,0,17,7.4,17,16.4c0,5.8-1.5,10.1-3.9,12.8
					l4,15.7h-9.9L448.4,95.2z M447.2,85.6c2.6,0,3-3.3,3-7.7c0-4.7-0.7-6.8-3-6.8V85.6z"/>
			</g>
			<g>
				<path fill="#17CF88" d="M478.4,71v35.3h-10V71h-6.7v-9.7h23.5V71H478.4z"/>
			</g>
		</g>
		<g>
			<g>
				<path fill="#17CF88" d="M660.5,633.6v9.6h6.1v9.5h-6.1V669h-10v-45h17.7v9.6L660.5,633.6z"/>
			</g>
			<g>
				<path fill="#17CF88" d="M671.5,669v-45h10v45H671.5z"/>
			</g>
			<g>
				<path fill="#17CF88" d="M701.5,668.9l-5.3-18.1c-0.1-0.5-0.5-1.5-0.8-2.9h-0.1c0.1,1.5,0.1,2.2,0.1,3v18h-9.1v-45h8.5l4.8,16.8
					c0.3,0.9,0.5,1.5,0.9,2.8h0.1c-0.1-1.2-0.1-2.1-0.1-3V624h9.1v45L701.5,668.9z"/>
			</g>
			<g>
				<path fill="#17CF88" d="M714.5,668.9v-45h10v45H714.5z"/>
			</g>
			<g>
				<path fill="#17CF88" d="M750.6,638.6h-9.5c0.3-4-0.3-5.7-1.6-5.7c-1,0-1.5,1.1-1.5,2.8c0,3.4,1.9,4.7,4.7,6.6
					c3.9,2.7,8.5,6.1,8.5,13.9c0,8.3-4.7,13.3-12.3,13.3c-8,0-12.3-5.6-11.9-15.4h9.8c-0.2,4.7,0.7,5.8,2.1,5.8
					c1.5,0,1.9-1.3,1.9-2.7c0-3.2-2.3-4.6-5.5-7.1c-3.7-2.8-7.7-6.5-7.7-13.9c0-8.5,4.6-13,11.8-13
					C746.8,623.2,751.2,627.6,750.6,638.6z"/>
			</g>
			<g>
				<path fill="#17CF88" d="M777.8,668.9h-10v-15.4h-3.9v15.4h-10v-45h10v19.9h3.9v-19.9h10V668.9z"/>
			</g>
		</g>
		<g>
			<g>
				<path fill="#FFFFFF" d="M408.2,155.5l-4.3-0.3L403,170l4.3,0.3c4.7,0.3,8-2.4,8.3-6.8C415.8,158.9,412.9,155.8,408.2,155.5z
					 M410.7,163c-0.1,1.6-1.1,2.6-2.8,2.6l0.4-5.5C409.6,160.4,410.8,161.2,410.7,163z"/>
			</g>
			<g>
				<path fill="#FFFFFF" d="M423.1,156.6c-3.8-0.2-6.4,2.1-6.6,6l-0.5,8.2l4.7,0.3l0.2-2.8l3.1,0.2l-0.2,2.8l4.7,0.3l0.5-8.2
					C429.1,159.4,426.9,156.8,423.1,156.6z M424.2,163l-0.1,1.1L421,164l0.1-1.1c0-0.6,0.3-1.8,1.6-1.7
					C424.2,161.2,424.2,162.5,424.2,163z"/>
			</g>
			<g>
				<path fill="#FFFFFF" d="M438.1,155.8l-0.4,6.7c-0.1,1.2-0.6,1.8-1.6,1.7c-1-0.1-1.5-0.7-1.4-1.9l0.3-4.2l-4.7-0.3l-0.3,4.2
					c-0.2,3,1,5.3,3.5,6.3l-0.2,3.4l4.7,0.3l0.2-3.4c2.5-0.7,4.1-2.8,4.2-5.8l0.4-6.7L438.1,155.8z"/>
			</g>
			<g>
				<path fill="#FFFFFF" d="M406.9,147.6h0.2l0.8-1.3h-0.7c0,0-0.5-0.5,1.1-4.4c1.4-3.7,3.4-5.3,6.1-5.1c1,0.1,1.7,0.3,2,0.8
					c0.5,0.8,0.3,2.2-0.8,5.3c-1.2,3.7-1.9,4.2-2.4,4.2c-0.1,0-0.1,0-0.1,0c-0.2-0.2,0.3-1.6,0.7-2.8c0.1-0.3,0.2-0.6,0.3-0.9
					l0.7-1.8c0.3-0.7,0.1-1.1-0.1-1.4c-0.6-0.9-2.1-1.2-2.9-1.3h-0.3l-4.3,10.2c-0.8,2.1-0.9,3.5-0.4,4.4c0.5,0.9,1.4,1,2.4,1.1
					l0.4,0.1l2.8-6.6c0,0.5,0.2,0.9,0.4,1.1c0.3,0.4,0.7,0.5,1.2,0.5c1.1,0,4.2-0.6,6.1-6.3c1.1-3.1,1.1-5.4,0.2-6.8
					c-0.8-1.1-2.1-1.7-4-1.8c-0.1,0-0.2,0-0.3,0c-4.5-0.2-8.9,2.7-11.1,7.1c-1.1,2.2-1.3,3.8-0.8,4.8c0.5,0.8,1.2,1.1,2.5,1.2
					C406.7,147.6,406.8,147.6,406.9,147.6z"/>
			</g>
			<g>
				<path fill="#FFFFFF" d="M432.7,156.4c2.2,0,5.1-1.8,6.9-6.9l3.7-10.2c0.4-1,0.2-1.7,0-2.1c-0.3-0.5-0.8-0.8-1.4-0.8
					c-0.4,0-0.8,0-1,0c-0.3,0-0.5,0-0.7,0l-0.3-0.1l-2.3,6.3c-1.2,3.3-2,4.7-2.7,4.6c0,0-0.1,0-0.2,0c-0.1,0-0.1,0-0.1-0.1
					c-0.3-0.5,0.8-2.7,2.3-6c0.3-0.6,0.6-1.1,0.9-1.8c0.5-1,0.6-1.8,0.3-2.4c-0.2-0.3-0.5-0.7-1.2-0.8c-0.1,0-0.2,0-0.3,0
					c-0.4,0-1.1,0-1.7,0.3l-0.1,0.1l-0.1,0.1c-1.1,2.7-2,4.7-2.5,6.6c-1.6,3.4-2.2,3.4-2.5,3.4c-0.1,0-0.1,0-0.1,0
					c-0.4-0.7,1.6-5.1,2.5-7.3c0.5-0.9,0.6-1.8,0.3-2.3c-0.2-0.4-0.7-0.7-1.2-0.8c-0.4,0-0.8,0-1,0c-0.3,0-0.5,0-0.7,0l-0.3-0.1
					l-0.1,0.3c-0.1,0.2-0.1,0.3-0.2,0.5c-0.3-0.5-0.7-0.8-1-0.9c-0.3-0.1-0.6-0.1-0.9-0.2c-1.3-0.1-3.8,0.5-5.5,5
					c-2.1,5.5-1.1,8.2,0.4,8.8c0.3,0.1,0.6,0.2,0.9,0.2c0.9,0.1,2.4-0.3,3.9-3c0.3,1.4,1,1.9,1.8,2.1c1.2,0.2,2.2-0.2,3.2-1.6
					c0,0.5,0.1,0.8,0.3,1.1c0.3,0.6,0.8,0.9,1.4,1c0.8,0.2,1.4-0.1,2.2-0.8l-0.7,1.9c-0.9,2.2-1.7,4.2-2.5,4.2h-0.1
					c-0.4,0-0.7-0.2-0.9-0.5c-0.2-0.3-0.2-0.8,0.1-1.2c0.1-0.2,0.2-0.3,0.3-0.3c0.5-0.1,1-0.6,0.9-1.4c-0.1-0.9-1.2-1.1-2.2-1.2
					c-6.2-0.4-10,2.4-13.3,2.2c0,0-0.9-0.1-0.9-0.7c0-0.5,0.6-0.8,1.1-0.9c-0.1-0.6-1.3-0.7-1.8-0.6c-1.1,0.2-2,0.9-2.3,1.7
					c-0.7,1.9,0.6,3.4,2.8,3.6c5,0.6,9.3-2.9,14.1-3.4c0,0.1-0.1,0.1-0.1,0.2c-0.4,0.9-0.3,1.9,0.2,2.7c0.5,0.8,1.3,1.2,2.5,1.3
					C432.5,156.4,432.6,156.4,432.7,156.4z M423.9,147.3L423.9,147.3c-0.5-0.2-0.1-1.7,1.2-5c0.4-0.9,1.5-3.9,2.2-3.8
					c0,0,0.1,0,0.2,0c0.3,0.1,0.1,0.9-0.5,2.8c0,0.1-0.1,0.3-0.2,0.5c-0.1,0.4-0.3,0.9-0.4,1C424.9,147.2,424,147.3,423.9,147.3z"/>
			</g>
		</g>
	</g>
	<g>
		<g>
			<polygon fill="#FF3B5C" points="164.8,270 148.8,270.6 137.1,259.7 136.6,243.9 147.4,232.2 163.3,231.5 175,242.3 175.6,258.3 
							"/>
			<path fill="#FFFFFF" d="M148.3,272.4l-12.7-11.8l-0.7-17.4l11.8-12.7l17.4-0.7l12.7,11.8l0.7,17.4l-11.8,12.7L148.3,272.4z
				 M138.8,259l10.6,9.9l14.5-0.6l9.9-10.6l-0.6-14.5l-10.6-9.9l-14.5,0.6l-9.9,10.6L138.8,259z"/>
		</g>
		<g>
			<g>
				<path fill="#FFFFFF" d="M150.2,247l-1.3,1.4c-0.5-0.6-1.5-0.7-2.3,0.2c-0.6,0.6-0.7,1.3-0.2,1.7c0.5,0.5,1.2-0.1,2.2-0.8
					c1.2-0.9,2.8-1.7,4.2-0.4c1.5,1.3,0.9,3.3-0.4,4.7c-1.7,1.9-4,1.9-5.3,0.5l1.4-1.5c0.6,0.6,1.6,0.6,2.5-0.4
					c0.6-0.7,0.8-1.3,0.3-1.7c-0.6-0.6-1.4,0.4-2.5,1c-1.1,0.8-2.6,1.3-3.8,0.1c-1.3-1.3-1.1-3.2,0.3-4.7
					C146.8,245.4,148.8,245.5,150.2,247z"/>
				<path fill="#FFFFFF" d="M149.4,255.4c-0.9,0-1.7-0.4-2.4-1l-0.1-0.1l1.6-1.7l0.1,0.1c0.2,0.2,0.6,0.4,0.9,0.4
					c0.5,0,0.9-0.3,1.4-0.7c0.3-0.3,0.5-0.6,0.5-0.9c0-0.2,0-0.5-0.2-0.7c-0.4-0.3-0.9,0.1-1.6,0.6c-0.2,0.2-0.5,0.3-0.7,0.5
					c-0.6,0.4-1.4,0.9-2.3,0.9c-0.7,0-1.2-0.3-1.7-0.8c-1.4-1.3-1.3-3.3,0.3-4.9c0.8-0.9,1.7-1.3,2.8-1.3c0.9,0,1.8,0.4,2.5,1.1
					l0.1,0.1l-1.5,1.7l-0.1-0.1c-0.2-0.3-0.6-0.4-0.9-0.4c-0.4,0-0.9,0.2-1.1,0.6c-0.3,0.3-0.5,0.7-0.5,1c0,0.2,0.1,0.4,0.2,0.5
					c0.1,0.1,0.2,0.1,0.3,0.1c0.4,0,0.9-0.4,1.4-0.8l0.3-0.2c0.8-0.6,1.7-1.1,2.7-1.1c0.6,0,1.1,0.3,1.7,0.8
					c1.6,1.5,0.9,3.6-0.4,4.9C151.6,254.9,150.4,255.4,149.4,255.4z M147.3,254.3c0.6,0.6,1.3,0.9,2.1,0.9c1,0,2.1-0.5,2.9-1.4
					c1.1-1.2,1.9-3.1,0.4-4.5c-0.5-0.5-0.9-0.7-1.5-0.7c-0.9,0-1.7,0.6-2.5,1l-0.3,0.2c-0.7,0.5-1.1,0.8-1.6,0.8
					c-0.2,0-0.4-0.1-0.5-0.2c-0.2-0.2-0.3-0.4-0.3-0.7c0-0.4,0.2-0.9,0.6-1.2c0.4-0.4,0.9-0.7,1.3-0.7c0.4,0,0.8,0.1,0.9,0.4
					l1.1-1.2c-0.7-0.7-1.4-0.9-2.2-0.9c-0.9,0-1.8,0.5-2.6,1.2c-1.4,1.5-1.5,3.3-0.3,4.6c0.5,0.5,0.9,0.7,1.5,0.7
					c0.8,0,1.6-0.5,2.1-0.8c0.2-0.2,0.5-0.3,0.7-0.5c0.6-0.4,1-0.8,1.5-0.8c0.2,0,0.4,0.1,0.5,0.2c0.2,0.2,0.3,0.6,0.3,0.9
					c-0.1,0.4-0.3,0.7-0.6,1c-0.5,0.5-1,0.8-1.6,0.8c-0.4,0-0.7-0.1-0.9-0.4L147.3,254.3z"/>
			</g>
			<g>
				<path fill="#FFFFFF" d="M153.6,241.3l5.5,5l-1.4,1.5l-5.5-5l-2,2.1l-1.5-1.4l5.4-5.8l1.5,1.4L153.6,241.3z"/>
				<path fill="#FFFFFF" d="M157.7,248.1l-5.5-5l-2,2.1l-1.7-1.6l5.6-6l1.7,1.6l-2,2.2l5.5,5L157.7,248.1z M152.1,242.6l5.5,5
					l1.2-1.3l-5.5-5l2-2.2l-1.3-1.2l-5.2,5.6l1.3,1.2L152.1,242.6z"/>
			</g>
			<g>
				<path fill="#FFFFFF" d="M160,255.1c2.5,2.3,2.3,4.7,0.7,6.5c-1.6,1.7-4,2.1-6.6-0.2c-2.5-2.3-2.3-4.7-0.7-6.5
					S157.6,252.8,160,255.1z M155.7,259.7c1.3,1.2,2.8,1.3,3.5,0.5c0.9-0.9,0.6-2.3-0.8-3.5c-1.3-1.2-2.8-1.3-3.5-0.5
					C154.1,257.2,154.3,258.5,155.7,259.7z"/>
				<path fill="#FFFFFF" d="M157.7,263.1c-1.2,0-2.5-0.6-3.6-1.6c-2.8-2.5-2.1-5.1-0.7-6.6c0.9-0.9,2-1.4,3.1-1.4
					c1.2,0,2.4,0.6,3.6,1.6c2.8,2.6,2.2,5.1,0.7,6.6C159.9,262.6,158.9,263.1,157.7,263.1z M156.5,253.6c-1,0-2.1,0.5-2.9,1.3
					c-0.7,0.8-2.6,3.2,0.7,6.3c1.1,1,2.3,1.5,3.4,1.5c1,0,2.1-0.5,2.9-1.3c2.1-2.3,1-4.7-0.7-6.3
					C158.8,254.1,157.7,253.6,156.5,253.6z M157.9,261L157.9,261c-0.8,0-1.5-0.4-2.3-1c-0.7-0.7-1.1-1.3-1.2-2
					c-0.1-0.7,0-1.2,0.5-1.7c0.4-0.4,0.9-0.7,1.4-0.7c0.8,0,1.5,0.4,2.3,1c1.3,1.2,1.6,2.8,0.8,3.7C159,260.7,158.5,261,157.9,261z
					 M156.3,255.8c-0.5,0-0.9,0.2-1.2,0.6c-0.4,0.4-0.6,0.9-0.4,1.5c0.1,0.6,0.5,1.2,1.1,1.8c0.8,0.7,1.4,1,2.1,1l0,0
					c0.5,0,0.9-0.2,1.2-0.6c0.8-0.9,0.5-2.2-0.8-3.3C157.7,256.1,157,255.8,156.3,255.8z"/>
			</g>
			<g>
				<path fill="#FFFFFF" d="M159.8,248.3c1.8-1.9,3.9-2.1,5.5-0.6c1.6,1.5,1.7,3.7-0.1,5.6l-0.6,0.6l1.5,1.4l-1.4,1.5l-7-6.5
					L159.8,248.3z M163.8,251.9c0.9-0.9,0.9-1.9,0.1-2.7c-0.7-0.7-1.6-0.7-2.5,0.4l-0.6,0.7l2.5,2.3L163.8,251.9z"/>
				<path fill="#FFFFFF" d="M164.9,257.1l-7.2-6.6l2.1-2.2c1-1,2.1-1.7,3.2-1.7c0.9,0,1.7,0.4,2.5,1c0.9,0.8,1.3,1.7,1.3,2.8
					s-0.5,2.1-1.4,3l-0.5,0.5l1.5,1.4L164.9,257.1z M158,250.4l6.7,6.3l1.2-1.3l-1.5-1.4l0.7-0.7c0.9-0.9,1.3-1.9,1.3-2.8
					c0-0.9-0.4-1.8-1.2-2.6c-0.7-0.7-1.5-0.9-2.3-0.9c-1,0-2.1,0.6-3,1.6L158,250.4z M163.3,252.7l-2.7-2.5l0.7-0.8
					c0.9-0.9,1.9-1.1,2.8-0.4c0.4,0.4,0.6,0.9,0.6,1.3s-0.3,1-0.7,1.5L163.3,252.7z M161,250.2l2.3,2.1l0.5-0.5
					c0.4-0.4,0.6-0.9,0.6-1.3c0-0.4-0.2-0.9-0.5-1.1c-0.7-0.7-1.5-0.5-2.3,0.4L161,250.2z"/>
			</g>
		</g>
	</g>
	<g>
		<g>
			<polygon fill="#FF3B5C" points="402.8,448.1 408.4,463 401.9,477.6 387,483.2 372.5,476.6 366.9,461.7 373.4,447.2 388.3,441.6 
							"/>
			<path fill="#FFFFFF" d="M387,485.1l-15.9-7.1l-6.2-16.2l7.1-15.9l16.2-6.2l15.9,7.1l6.2,16.2l-7.1,15.9L387,485.1z M373.8,475.4
				l13.3,6l13.6-5.1l6-13.3l-5.1-13.6l-13.3-6l-13.6,5.1l-6,13.3L373.8,475.4z"/>
		</g>
		<g>
			<g>
				<path fill="#FFFFFF" d="M385.7,469.2l1.8,0.9c-0.4,0.7-0.2,1.6,0.9,2.1c0.8,0.4,1.4,0.2,1.7-0.4c0.3-0.7-0.5-1.1-1.4-1.8
					c-1.2-0.9-2.5-2-1.7-3.8c0.9-1.8,2.8-1.9,4.6-1.1c2.3,1,3,3.1,2.2,4.8l-1.9-0.9c0.4-0.8,0-1.7-1.1-2.3c-0.8-0.4-1.5-0.3-1.7,0.3
					c-0.3,0.7,0.8,1.2,1.8,2c1,0.9,2.1,2,1.3,3.6c-0.8,1.7-2.7,2.1-4.6,1.2C385.3,472.9,384.6,471,385.7,469.2z"/>
				<path fill="#FFFFFF" d="M389.3,474.5c-0.6,0-1.2-0.2-1.9-0.5c-1-0.5-1.8-1.2-2.1-2.2c-0.3-0.9-0.2-1.8,0.3-2.8l0.1-0.1l2.1,0.9
					l-0.1,0.1c-0.2,0.3-0.2,0.7-0.1,0.9c0.1,0.4,0.5,0.8,0.9,0.9c0.3,0.1,0.5,0.2,0.8,0.2c0.4,0,0.7-0.2,0.8-0.5
					c0.2-0.5-0.3-0.9-1.1-1.4l-0.3-0.2c-1.2-0.9-2.6-2.1-1.7-4c0.5-1.1,1.4-1.7,2.7-1.7c0.7,0,1.3,0.2,2.1,0.5
					c1.2,0.6,2.1,1.4,2.5,2.5c0.3,0.9,0.2,1.8-0.2,2.6l-0.1,0.1l-2.1-0.9l0.1-0.1c0.2-0.3,0.2-0.7,0-0.9c-0.2-0.5-0.6-0.9-1-1
					c-0.3-0.1-0.6-0.2-0.9-0.2c-0.2,0-0.6,0.1-0.8,0.4c-0.2,0.4,0.3,0.8,1,1.4c0.2,0.2,0.5,0.3,0.7,0.5c1,0.9,2.2,2,1.3,3.8
					C391.5,473.9,390.5,474.5,389.3,474.5z M385.7,469.4c-0.4,0.8-0.5,1.6-0.2,2.4c0.3,0.9,0.9,1.5,2,2c0.6,0.3,1.2,0.4,1.8,0.4
					c1.1,0,2.1-0.6,2.6-1.6c0.8-1.5-0.3-2.7-1.3-3.4c-0.2-0.2-0.5-0.3-0.7-0.5c-0.8-0.6-1.4-1-1.1-1.7c0.2-0.4,0.5-0.6,0.9-0.6
					c0.3,0,0.7,0.1,0.9,0.2c0.6,0.3,1,0.7,1.2,1.2c0.1,0.4,0.1,0.8,0,1l1.6,0.8c0.4-0.8,0.4-1.5,0.1-2.3c-0.3-0.9-1.1-1.8-2.3-2.3
					c-0.7-0.3-1.3-0.5-1.9-0.5c-0.8,0-1.9,0.3-2.5,1.5c-0.8,1.6,0.4,2.7,1.6,3.6l0.3,0.2c0.9,0.7,1.5,1.1,1.2,1.8
					c-0.2,0.4-0.6,0.6-1,0.6c-0.3,0-0.6-0.1-0.9-0.2c-0.6-0.3-0.9-0.7-1-1.1c-0.1-0.4-0.1-0.7,0.1-1L385.7,469.4z"/>
			</g>
			<g>
				<path fill="#FFFFFF" d="M379.2,467.8l3-6.8l1.9,0.9l-3,6.8l2.7,1.1l-0.9,1.9l-7.2-3.2l0.9-1.9L379.2,467.8z"/>
				<path fill="#FFFFFF" d="M382.9,472L382.9,472l-7.4-3.4l0.9-2.1l2.7,1.2l3-6.8l2.2,0.9l-3,6.8l2.7,1.1L382.9,472z M375.9,468.4
					l6.9,3.1l0.8-1.6l-2.7-1.1l3-6.8l-1.7-0.8l-3,6.8l-2.7-1.2L375.9,468.4z"/>
			</g>
			<g>
				<path fill="#FFFFFF" d="M390.2,457.3c1.4-3,3.8-3.7,5.9-2.8s3.2,3.1,1.9,6.3c-1.3,3.1-3.8,3.6-5.9,2.7
					C389.9,462.6,388.8,460.4,390.2,457.3z M396,460c0.8-1.7,0.4-3-0.7-3.5c-1-0.5-2.4,0.1-3.1,1.8c-0.8,1.7-0.4,3,0.7,3.5
					C394,462.3,395.2,461.6,396,460z"/>
				<path fill="#FFFFFF" d="M394,464.1c-0.7,0-1.2-0.2-1.9-0.5c-1.1-0.5-2-1.3-2.4-2.4c-0.4-1.1-0.3-2.6,0.4-4
					c0.9-2.1,2.5-3.2,4.2-3.2c0.7,0,1.2,0.2,1.9,0.5c1.1,0.5,2,1.3,2.4,2.4c0.4,1.1,0.3,2.6-0.4,4
					C397.2,462.9,395.7,464.1,394,464.1z M394.3,454.3c-1.6,0-3,1-3.9,3c-0.7,1.4-0.8,2.8-0.4,3.8c0.4,0.9,1.1,1.7,2.2,2.2
					c0.6,0.3,1.2,0.4,1.8,0.4c1.6,0,3-1,3.9-3c0.7-1.4,0.8-2.8,0.4-3.8c-0.4-0.9-1.1-1.7-2.2-2.3
					C395.4,454.5,394.9,454.3,394.3,454.3z M393.6,462.1L393.6,462.1c-0.3,0-0.6-0.1-0.9-0.2c-0.6-0.3-0.9-0.8-1.1-1.4
					c-0.1-0.7,0-1.4,0.4-2.3c0.6-1.3,1.5-2.1,2.5-2.1c0.3,0,0.6,0.1,0.9,0.2c1.2,0.6,1.5,2,0.8,3.7
					C395.5,461.3,394.7,462.1,393.6,462.1z M394.6,456.4c-0.9,0-1.7,0.7-2.2,1.9c-0.4,0.8-0.5,1.5-0.4,2.1c0.1,0.6,0.5,0.9,0.9,1.2
					c0.2,0.1,0.5,0.2,0.7,0.2c0.9,0,1.7-0.7,2.2-1.9c0.7-1.5,0.5-2.8-0.7-3.3C395.1,456.5,394.8,456.4,394.6,456.4z"/>
			</g>
			<g>
				<path fill="#FFFFFF" d="M383.9,459.7c-2.4-1-3.2-3-2.3-5c0.9-2.1,2.9-2.8,5.3-1.7l0.8,0.3l0.9-1.9l1.9,0.9l-3.9,8.6L383.9,459.7
					z M386,454.8c-1.1-0.5-2.1-0.2-2.6,0.8c-0.4,0.9-0.1,1.7,1.1,2.3l0.8,0.4l1.3-3L386,454.8z"/>
				<path fill="#FFFFFF" d="M386.5,461l-2.8-1.2c-1.2-0.6-2.1-1.3-2.5-2.3s-0.4-2,0.1-3c0.7-1.4,1.8-2.3,3.3-2.3
					c0.7,0,1.4,0.2,2.2,0.5l0.6,0.3l0.9-1.9l2.2,0.9L386.5,461z M384.7,452.6c-1.4,0-2.5,0.8-3.1,2.1c-0.5,0.9-0.5,1.9-0.1,2.8
					c0.4,0.9,1.2,1.6,2.4,2.1l2.5,1.1l3.8-8.5l-1.6-0.8l-0.9,1.9l-0.9-0.4C386.1,452.7,385.4,452.6,384.7,452.6z M385.5,458.3
					l-0.9-0.4c-0.7-0.3-1-0.7-1.2-1.1c-0.2-0.4-0.2-0.9,0-1.3c0.3-0.7,0.9-1,1.6-1c0.4,0,0.7,0.1,1,0.3l0.9,0.4L385.5,458.3z
					 M385,454.7c-0.7,0-1.1,0.3-1.4,0.9c-0.2,0.4-0.2,0.8,0,1.1c0.2,0.4,0.6,0.7,1.1,0.9l0.7,0.3l1.2-2.8l-0.7-0.3
					C385.7,454.8,385.3,454.7,385,454.7z"/>
			</g>
		</g>
	</g>
	<g>
		<g>
			<polygon fill="#FF3B5C" points="568.2,167.2 567.4,183.2 555.5,193.8 539.6,193.1 529,181.3 529.7,165.3 541.6,154.6 
				557.4,155.5 			"/>
			<path fill="#FFFFFF" d="M556.2,195.6l-17.3-0.9l-11.7-12.8l0.9-17.3l12.8-11.7l17.3,0.9l11.7,12.8l-0.9,17.3L556.2,195.6z
				 M540.4,191.4l14.5,0.8l10.7-9.8l0.8-14.5l-9.8-10.7l-14.5-0.8l-10.7,9.8l-0.8,14.5L540.4,191.4z"/>
		</g>
		<g>
			<g>
				<path fill="#FFFFFF" d="M544,179.7l1.3,1.5c-0.7,0.5-0.8,1.4,0,2.3c0.6,0.6,1.2,0.8,1.7,0.4c0.5-0.5,0-1.2-0.6-2.3
					c-0.8-1.3-1.5-2.8,0-4.2c1.5-1.3,3.3-0.7,4.7,0.8c1.7,1.9,1.5,4.1,0,5.3l-1.4-1.5c0.6-0.5,0.8-1.6-0.1-2.5
					c-0.6-0.7-1.3-0.9-1.7-0.5c-0.6,0.5,0.2,1.4,0.8,2.6c0.7,1.1,1.1,2.7-0.2,3.8c-1.4,1.2-3.3,0.9-4.7-0.7
					C542.2,183,542.3,180.9,544,179.7z"/>
				<path fill="#FFFFFF" d="M546.5,186.3c-1,0-2.1-0.5-2.9-1.4c-0.8-0.9-1.1-1.9-1-2.8c0.1-0.9,0.6-1.7,1.4-2.4l0.1-0.1l1.5,1.7
					l-0.1,0.1c-0.3,0.2-0.5,0.5-0.5,0.9c0,0.4,0.1,0.9,0.5,1.2c0.5,0.6,1.1,0.7,1.4,0.4c0.4-0.4,0.1-0.9-0.5-1.8l-0.2-0.3
					c-0.8-1.4-1.5-2.9,0-4.4c0.6-0.5,1.1-0.8,1.9-0.8c1,0,2.1,0.6,2.9,1.5c0.9,0.9,1.3,2.2,1.2,3.2c-0.1,0.9-0.5,1.7-1.2,2.3
					l-0.1,0.1l-1.5-1.7l0.1-0.1c0.3-0.2,0.4-0.6,0.5-0.9c0-0.5-0.2-0.9-0.6-1.4c-0.5-0.6-1.1-0.8-1.5-0.5c-0.4,0.3-0.1,0.9,0.5,1.7
					c0.1,0.2,0.3,0.5,0.4,0.7c0.7,1.2,1.1,2.8-0.3,4C547.9,186,547.2,186.3,546.5,186.3z M544,179.9c-0.7,0.6-1.1,1.3-1.1,2.1
					c-0.1,0.9,0.3,1.8,1,2.7c0.8,0.9,1.7,1.3,2.7,1.3c0.7,0,1.2-0.3,1.8-0.7c1.3-1.1,0.8-2.6,0.2-3.6c-0.1-0.3-0.3-0.5-0.4-0.7
					c-0.5-0.9-0.9-1.6-0.4-2.1c0.5-0.4,1.2-0.2,1.9,0.5c0.5,0.5,0.7,1,0.7,1.6c0,0.4-0.2,0.8-0.4,0.9l1.2,1.3c0.6-0.5,0.9-1.2,1-2
					c0.1-1-0.4-2.1-1.1-3c-0.9-0.9-1.8-1.4-2.8-1.4c-0.6,0-1.1,0.2-1.7,0.7c-1.3,1.2-0.7,2.7,0.1,4l0.2,0.3c0.5,0.9,0.9,1.6,0.4,2.1
					c-0.2,0.2-0.4,0.3-0.7,0.3c-0.4,0-0.9-0.2-1.2-0.7s-0.6-0.9-0.6-1.4c0-0.4,0.2-0.7,0.5-0.9L544,179.9z"/>
			</g>
			<g>
				<path fill="#FFFFFF" d="M538.5,175.9l5.5-5l1.4,1.5l-5.5,5l1.9,2.1l-1.5,1.3l-5.3-5.9l1.5-1.3L538.5,175.9z"/>
				<path fill="#FFFFFF" d="M540.3,181.1L540.3,181.1l-5.5-6.1l1.7-1.5l2,2.2l5.5-5l1.6,1.8l-0.1,0.1l-5.4,4.9l1.9,2.1L540.3,181.1z
					 M535.3,175l5.1,5.7l1.3-1.1l-1.9-2.1l0.1-0.1l5.4-4.9l-1.2-1.3l-5.5,5l-2-2.2L535.3,175z"/>
			</g>
			<g>
				<path fill="#FFFFFF" d="M552.9,170.6c2.5-2.3,4.9-1.9,6.6-0.1c1.6,1.7,1.7,4.2-0.8,6.5c-2.5,2.3-4.9,1.8-6.5,0.1
					C550.6,175.4,550.4,172.9,552.9,170.6z M557.2,175.4c1.3-1.2,1.6-2.6,0.8-3.5s-2.2-0.9-3.6,0.4c-1.3,1.2-1.6,2.6-0.8,3.5
					C554.4,176.7,555.8,176.6,557.2,175.4z"/>
				<path fill="#FFFFFF" d="M555.2,178.7c-1.1,0-2.3-0.5-3.1-1.5c-1.4-1.6-2-4.2,0.8-6.6c1.1-1,2.4-1.6,3.6-1.6
					c1.1,0,2.3,0.5,3.1,1.5c1.4,1.6,2,4.2-0.8,6.6C557.5,178.1,556.4,178.7,555.2,178.7z M556.4,169.2c-1.1,0-2.3,0.5-3.4,1.5
					c-3.2,2.9-1.4,5.5-0.8,6.3c0.9,0.9,1.8,1.4,2.9,1.4c1.1,0,2.3-0.5,3.3-1.5c1.7-1.5,2.8-4,0.8-6.3
					C558.5,169.7,557.4,169.2,556.4,169.2z M555,176.5L555,176.5c-0.6,0-1-0.2-1.4-0.7c-0.9-1-0.6-2.5,0.8-3.7c0.8-0.7,1.5-1,2.3-1
					c0.6,0,1,0.2,1.4,0.7c0.9,1,0.6,2.5-0.8,3.7C556.5,176.2,555.7,176.5,555,176.5z M556.6,171.4c-0.7,0-1.4,0.4-2.1,0.9
					c-1.2,1.1-1.5,2.5-0.8,3.3c0.3,0.4,0.8,0.6,1.2,0.6l0,0c0.7,0,1.4-0.4,2.1-0.9c1.2-1.1,1.5-2.5,0.8-3.3
					C557.5,171.6,557.1,171.4,556.6,171.4z"/>
			</g>
			<g>
				<path fill="#FFFFFF" d="M546.1,170.3c-1.8-2-1.8-4.1-0.1-5.6c1.7-1.5,3.8-1.3,5.6,0.6l0.6,0.6l1.5-1.4l1.4,1.5l-7,6.4
					L546.1,170.3z M550,166.6c-0.9-0.9-1.9-0.9-2.7-0.3c-0.7,0.7-0.8,1.5,0.2,2.6l0.6,0.7l2.5-2.3L550,166.6z"/>
				<path fill="#FFFFFF" d="M548,172.6l-2-2.3c-1.8-2-1.9-4.2-0.1-5.8c0.8-0.7,1.6-1,2.6-1c1.1,0,2.3,0.6,3.2,1.7l0.5,0.5l1.5-1.4
					l1.6,1.8l-0.1,0.1L548,172.6z M548.5,163.8c-0.9,0-1.6,0.4-2.4,0.9c-1.6,1.5-1.6,3.5,0.1,5.4l1.8,2l6.8-6.2l-1.2-1.3l-1.5,1.4
					l-0.7-0.7C550.6,164.4,549.6,163.8,548.5,163.8z M548.1,169.7l-0.7-0.8c-0.9-1-0.9-2-0.2-2.8c0.4-0.3,0.8-0.5,1.2-0.5
					c0.6,0,1.1,0.3,1.6,0.8l0.7,0.8L548.1,169.7z M548.6,166c-0.4,0-0.8,0.2-1,0.4c-0.7,0.7-0.7,1.4,0.2,2.4l0.5,0.5l2.3-2.1
					l-0.5-0.5C549.6,166.3,549.1,166,548.6,166z"/>
			</g>
		</g>
	</g>
	<g>
		<g>
			<polygon fill="#FF3B5C" points="258.9,607.1 243.6,611.7 229.5,604.2 225,589 232.5,574.9 247.8,570.3 261.8,577.8 266.4,593 			
				"/>
			<path fill="#FFFFFF" d="M243.4,613.5l-15.3-8.2l-5-16.6l8.2-15.3l16.6-5l15.3,8.2l5,16.6l-8.2,15.3L243.4,613.5z M231,603.1
				l12.8,6.8l13.9-4.2l6.8-12.8l-4.2-13.9l-12.8-6.8l-13.9,4.2l-6.8,12.8L231,603.1z"/>
		</g>
		<g>
			<g>
				<path fill="#FFFFFF" d="M239,588.6l-0.9,1.8c-0.7-0.5-1.6-0.3-2.1,0.8c-0.4,0.8-0.3,1.4,0.2,1.7c0.6,0.3,1.1-0.4,1.9-1.3
					c0.9-1.1,2.2-2.4,3.9-1.4c1.8,0.9,1.7,2.9,0.9,4.7c-1.2,2.3-3.3,2.8-5,1.8l0.9-1.8c0.7,0.4,1.7,0.2,2.3-0.9
					c0.4-0.8,0.4-1.5-0.1-1.8c-0.7-0.4-1.3,0.7-2.2,1.6c-0.9,0.9-2.1,1.9-3.7,1c-1.6-0.9-1.9-2.8-0.9-4.7
					C235.2,587.9,237.3,587.4,239,588.6z"/>
				<path fill="#FFFFFF" d="M239.4,597c-0.6,0-1.2-0.2-1.7-0.5l-0.1-0.1l1.1-2.1l0.1,0.1c0.2,0.1,0.4,0.2,0.6,0.2
					c0.6,0,1.1-0.4,1.5-1c0.4-0.7,0.4-1.3-0.1-1.6c-0.5-0.2-0.9,0.3-1.4,0.9c-0.2,0.2-0.4,0.4-0.6,0.6c-0.7,0.7-1.4,1.4-2.6,1.4
					c-0.4,0-0.9-0.1-1.3-0.4c-1.7-0.9-2.1-2.8-1-4.8c0.7-1.3,1.8-2.1,3.1-2.1c0.7,0,1.3,0.2,1.9,0.6l0.1,0.1l-1,2l-0.1-0.1
					c-0.2-0.1-0.5-0.2-0.7-0.2c-0.5,0-0.9,0.3-1.2,0.9c-0.2,0.4-0.3,0.8-0.2,1.1c0.1,0.2,0.2,0.3,0.4,0.4c0.1,0,0.2,0.1,0.2,0.1
					c0.4,0,0.8-0.5,1.3-1.1l0.2-0.3c0.8-0.9,1.6-1.8,2.8-1.8c0.4,0,0.9,0.1,1.2,0.4c0.9,0.5,1.4,1.2,1.5,2.2
					c0.1,0.9-0.1,1.8-0.6,2.7C242.2,596.2,240.8,597,239.4,597z M238,596.4c0.5,0.3,0.9,0.4,1.4,0.4c1.2,0,2.5-0.9,3.2-2.2
					c0.5-0.9,0.7-1.7,0.6-2.5c-0.1-0.9-0.6-1.5-1.3-1.9c-0.4-0.2-0.8-0.3-1.1-0.3c-1,0-1.9,0.9-2.7,1.7l-0.2,0.3
					c-0.6,0.7-1,1.2-1.5,1.2c-0.1,0-0.2,0-0.4-0.1c-0.2-0.1-0.4-0.3-0.5-0.6c-0.1-0.4-0.1-0.9,0.2-1.3c0.4-0.7,0.9-1,1.5-1
					c0.3,0,0.5,0.1,0.7,0.2l0.9-1.5c-0.6-0.3-1.1-0.5-1.7-0.5c-1.1,0-2.2,0.7-2.8,1.9c-0.9,1.8-0.7,3.6,0.9,4.5
					c0.4,0.2,0.8,0.3,1.1,0.3c0.9,0,1.8-0.8,2.4-1.3c0.2-0.2,0.4-0.4,0.5-0.6c0.5-0.6,0.9-1.1,1.4-1.1c0.1,0,0.2,0,0.4,0.1
					c0.6,0.3,0.7,1.1,0.2,2c-0.4,0.8-1,1.2-1.8,1.2c-0.2,0-0.5,0-0.7-0.1L238,596.4z"/>
			</g>
			<g>
				<path fill="#FFFFFF" d="M240.8,582.2l6.6,3.5l-0.9,1.9l-6.6-3.5l-1.3,2.6l-1.8-0.9l3.7-6.9l1.8,0.9L240.8,582.2z"/>
				<path fill="#FFFFFF" d="M246.4,587.7l-6.6-3.5l-1.3,2.6l-2.1-1.1l3.9-7.2l2.1,1.1l-1.4,2.6l6.6,3.5L246.4,587.7z M239.8,583.8
					l6.6,3.5l0.9-1.6l-6.6-3.5l1.4-2.6l-1.5-0.9l-3.6,6.7l1.5,0.9L239.8,583.8z"/>
			</g>
			<g>
				<path fill="#FFFFFF" d="M250.5,593.9c2.9,1.6,3.4,4,2.3,6.1c-1.1,2.1-3.4,3-6.4,1.4c-2.9-1.6-3.4-4-2.3-6.1
					C245.3,593.3,247.6,592.4,250.5,593.9z M247.5,599.5c1.6,0.9,2.9,0.7,3.5-0.5c0.6-1.1,0-2.4-1.6-3.2s-2.9-0.7-3.5,0.5
					C245.4,597.4,245.9,598.6,247.5,599.5z"/>
				<path fill="#FFFFFF" d="M249.3,602.4c-0.9,0-1.9-0.3-2.8-0.8c-1.4-0.8-2.4-1.8-2.8-2.9c-0.4-1-0.2-2.2,0.4-3.3
					c0.8-1.5,2.1-2.4,3.7-2.4c0.9,0,1.8,0.3,2.8,0.8c1.4,0.8,2.4,1.8,2.8,2.9c0.4,1,0.2,2.2-0.4,3.3
					C252.1,601.6,250.8,602.4,249.3,602.4z M247.8,593.3c-1.4,0-2.7,0.8-3.4,2.2c-0.6,1-0.7,2.1-0.4,3.1c0.4,1.1,1.2,2.1,2.6,2.8
					c0.9,0.5,1.9,0.8,2.8,0.8c1.4,0,2.7-0.8,3.4-2.2c0.6-1,0.7-2.1,0.4-3.1c-0.4-1.1-1.2-2.1-2.7-2.8
					C249.5,593.5,248.6,593.3,247.8,593.3z M249.4,600.2L249.4,600.2c-0.6,0-1.2-0.2-1.9-0.6c-0.9-0.5-1.4-0.9-1.7-1.6
					c-0.3-0.6-0.3-1.2,0-1.8c0.4-0.7,1-1,1.8-1c0.6,0,1.2,0.2,1.9,0.6c0.9,0.5,1.4,0.9,1.7,1.6c0.3,0.6,0.3,1.2,0,1.8
					C250.8,599.8,250.1,600.2,249.4,600.2z M247.7,595.5c-0.8,0-1.3,0.3-1.6,0.9c-0.3,0.5-0.3,1,0,1.5c0.3,0.6,0.8,1,1.5,1.4
					c0.7,0.3,1.2,0.5,1.8,0.5c0.8,0,1.3-0.3,1.6-0.9c0.3-0.5,0.3-1,0-1.5c-0.3-0.6-0.8-1-1.5-1.4
					C248.8,595.7,248.2,595.5,247.7,595.5z"/>
			</g>
			<g>
				<path fill="#FFFFFF" d="M248.6,587.4c1.2-2.4,3.2-3,5.2-2c2,1,2.6,3.1,1.3,5.5l-0.4,0.7l1.9,0.9l-0.9,1.9l-8.4-4.5L248.6,587.4z
					 M253.4,589.9c0.6-1,0.3-2.1-0.6-2.6c-0.9-0.5-1.7-0.2-2.4,1l-0.4,0.8l2.9,1.6L253.4,589.9z"/>
				<path fill="#FFFFFF" d="M255.7,594.7l-8.6-4.7l1.4-2.7c0.9-1.6,2.1-2.6,3.5-2.6c0.6,0,1.2,0.2,1.9,0.5c2.1,1.1,2.7,3.3,1.3,5.7
					l-0.3,0.6l1.9,0.9L255.7,594.7z M247.5,589.9l8.2,4.4l0.9-1.6l-1.9-0.9l0.5-0.9c1.2-2.3,0.8-4.2-1.2-5.3
					c-0.6-0.3-1.1-0.5-1.7-0.5c-1.3,0-2.5,0.9-3.3,2.4L247.5,589.9z M253.1,590.9l-3.2-1.7l0.5-0.9c0.6-1,1.2-1.3,1.7-1.3
					c0.3,0,0.6,0.1,0.9,0.2c0.9,0.6,1.2,1.6,0.7,2.8L253.1,590.9z M250.2,589l2.7,1.4l0.3-0.7c0.6-0.9,0.3-1.9-0.6-2.4
					c-0.9-0.5-1.6-0.1-2.2,0.9L250.2,589z"/>
			</g>
		</g>
	</g>
	<g>
		<g>
			<path fill="#FFFFFF" d="M180.1,271.9c3.1,0.9,3.9,1.9,3.5,3.2c-0.4,1.3-1.5,1.8-4.7,0.9c-3.1-0.9-3.8-1.9-3.4-3.2
				C175.9,271.6,176.9,271,180.1,271.9z M179.3,274.6c2.2,0.6,2.7,0.5,2.8,0.1c0.1-0.4-0.3-0.8-2.5-1.3c-2.2-0.6-2.8-0.5-2.8-0.1
				C176.7,273.7,177.2,274.1,179.3,274.6z"/>
		</g>
		<g>
			<path fill="#FFFFFF" d="M182.7,270.3l1.9,0.6l-0.4,1.4l-7.9-2.2l0.3-1.1c0.5-1.8,1.9-2.4,3.7-1.9
				C182.2,267.5,183,268.7,182.7,270.3z M181.4,269.9c0.2-0.6-0.5-1-1.3-1.3c-0.9-0.3-1.6-0.2-1.8,0.5L181.4,269.9z"/>
		</g>
		<g>
			<path fill="#FFFFFF" d="M179.4,264.6l2,0.6l0.4-1.2l1.4,0.4l-0.4,1.2l1.7,0.5l0.5-1.5l1.4,0.4l-0.9,3l-7.9-2.2l0.9-3l1.4,0.4
				L179.4,264.6z"/>
		</g>
		<g>
			<path fill="#FFFFFF" d="M187.3,261.3l-4.1,0.1c-0.2,0-0.5,0-0.7,0l0,0c0.2,0,0.4,0.1,0.7,0.2l3.7,1l-0.4,1.3l-7.9-2.2l0.4-1.2
				l3.9-0.1c0.2,0,0.5,0,0.7,0l0,0c-0.2,0-0.5-0.1-0.7-0.2l-3.5-0.9l0.4-1.3l7.9,2.2L187.3,261.3z"/>
		</g>
		<g>
			<path fill="#FFFFFF" d="M184,251.8l5.5,1.5l-0.4,1.4l-2.1-0.6l-0.3,1l2.1,0.6l-0.4,1.4l-5.5-1.5c-1.7-0.5-2.2-1.6-1.9-2.7
				C181.3,252,182.3,251.4,184,251.8z M183.6,253.3c-0.7-0.2-1-0.1-1.1,0.3c-0.1,0.3,0.2,0.7,0.9,0.9l2,0.6l0.3-1L183.6,253.3z"/>
		</g>
		<g>
			<path fill="#FFFFFF" d="M187.4,284.1l-0.4,1.4c-1.4-0.4-1.8-0.4-1.9,0c-0.1,0.4,0.3,0.8,2.5,1.3c2.2,0.6,2.7,0.5,2.8,0.1
				c0.1-0.4-0.2-0.6-1.6-0.9l0.4-1.4c2.4,0.7,2.9,1.6,2.7,2.8c-0.4,1.3-1.6,1.9-4.7,0.9c-3.1-0.9-3.8-2-3.4-3.2
				C184,284,184.9,283.5,187.4,284.1z"/>
		</g>
		<g>
			<path fill="#FFFFFF" d="M193.5,280.8l-0.4,1.4l-2.8-0.8l-0.3,0.9l2.8,0.8l-0.4,1.4l-7.9-2.2l0.4-1.4l3.6,1l0.3-0.9l-3.6-1
				l0.4-1.4L193.5,280.8z"/>
		</g>
		<g>
			<path fill="#FFFFFF" d="M187.7,276.5l2,0.6l0.4-1.2l1.4,0.4l-0.4,1.2l1.7,0.5l0.5-1.5l1.4,0.4l-0.9,3l-7.9-2.2l0.9-3l1.4,0.4
				L187.7,276.5z"/>
		</g>
		<g>
			<path fill="#FFFFFF" d="M191.1,270.8l-0.4,1.4c-1.4-0.4-1.8-0.4-1.9,0c-0.1,0.4,0.3,0.8,2.5,1.3c2.2,0.6,2.7,0.5,2.8,0.1
				c0.1-0.4-0.2-0.6-1.6-0.9l0.4-1.4c2.4,0.7,2.9,1.6,2.7,2.8c-0.4,1.3-1.6,1.9-4.7,0.9c-3.1-0.9-3.8-2-3.4-3.2
				C187.7,270.7,188.6,270.2,191.1,270.8z"/>
		</g>
		<g>
			<path fill="#FFFFFF" d="M195.4,267.1l1.7,0.5l-0.4,1.4l-1.6-0.5c-0.9-0.2-1.2-0.1-1.3,0.3l-0.1,0.3l2.8,0.8l-0.4,1.4l-7.9-2.2
				l0.4-1.4l3.7,1l0.1-0.2c0.1-0.5-0.1-0.8-0.9-0.9l-2.6-0.7l0.4-1.4l2.6,0.8c0.9,0.3,1.3,0.7,1.5,1.1
				C193.8,266.9,194.5,266.8,195.4,267.1z"/>
		</g>
		<g>
			<path fill="#FFFFFF" d="M197.3,266.7l-7.9-2.2l0.4-1.4l7.9,2.2L197.3,266.7z"/>
		</g>
		<g>
			<path fill="#FFFFFF" d="M198.8,261.5l-4.1,0.1c-0.2,0-0.5,0-0.7,0l0,0c0.2,0,0.4,0.1,0.7,0.2l3.7,1l-0.4,1.3l-7.9-2.2l0.4-1.2
				l3.9-0.1c0.2,0,0.5,0,0.7,0l0,0c-0.2,0-0.5-0.1-0.7-0.2l-3.5-0.9l0.4-1.3l7.9,2.2L198.8,261.5z"/>
		</g>
		<g>
			<path fill="#FFFFFF" d="M196.3,254c3.3,0.9,4.2,2.1,3.8,3.4s-1.7,1.9-4.7,1c-3-0.9-3.7-2.1-3.3-3.3c0.4-1.2,1.5-1.7,3.5-1.2
				l-0.4,1.4c-1.1-0.3-1.5-0.2-1.6,0.2c-0.1,0.4,0.3,0.9,2.4,1.5c2.2,0.6,2.7,0.5,2.8,0c0.1-0.3-0.1-0.8-1.3-1.1l-0.3,0.9l-1.4-0.4
				L196.3,254z"/>
		</g>
		<g>
			<path fill="#FFFFFF" d="M201.3,246.9l1.4,0.4c-0.1,0.6-0.4,1-0.8,1.4c0.2,0.5,0.2,1,0.1,1.6c-0.4,1.3-1.5,2.1-2.9,1.7
				c-0.9-0.3-1.4-0.9-1.7-1.6c-0.6,0-1.1,0-1.7-0.2c-1.4-0.4-2-1.4-1.7-2.5c0.3-1,1.2-1.5,2.3-1.2c1.1,0.3,1.5,1.3,1.9,2.3
				c0.6-0.1,1.1-0.3,1.6-0.5c-0.4-0.2-0.9-0.4-1.5-0.6l0.4-1.3c1,0.2,1.9,0.6,2.5,1C201.2,247.4,201.3,247.2,201.3,246.9z
				 M197,249.1c-0.2-0.5-0.4-0.9-0.9-1c-0.3-0.1-0.6,0-0.7,0.3c-0.1,0.3,0.2,0.5,0.7,0.7C196.3,249,196.6,249.1,197,249.1z
				 M200.8,249.7c-0.6,0.3-1.2,0.6-1.9,0.7c0.2,0.2,0.4,0.3,0.7,0.4c0.7,0.2,1-0.2,1.2-0.7C200.8,249.9,200.8,249.7,200.8,249.7z"/>
		</g>
		<g>
			<path fill="#FFFFFF" d="M199.2,281.2l-0.4,1.4c-0.9-0.3-1.2-0.2-1.3,0.1c-0.1,0.3,0.2,0.6,0.6,0.7c0.7,0.2,1-0.1,1.6-0.6
				c0.7-0.6,1.5-1.1,2.8-0.9c1.3,0.4,2,1.3,1.7,2.7c-0.4,1.3-1.5,1.8-3.2,1.2l0.4-1.4c0.9,0.3,1.3,0.2,1.4-0.2s-0.2-0.6-0.6-0.7
				c-0.7-0.2-1,0.2-1.7,0.7c-0.7,0.6-1.4,1-2.8,0.7c-1.4-0.4-2-1.3-1.6-2.6C196.4,281,197.3,280.5,199.2,281.2z"/>
		</g>
		<g>
			<path fill="#FFFFFF" d="M200.3,276.5l5.5,1.5l-0.4,1.4l-2.1-0.6l-0.3,1l2.1,0.6l-0.4,1.4l-5.5-1.5c-1.7-0.5-2.2-1.6-1.9-2.7
				C197.6,276.7,198.6,276.1,200.3,276.5z M199.8,278c-0.7-0.2-1-0.1-1.1,0.3c-0.1,0.3,0.2,0.7,0.9,0.9l2,0.6l0.3-1L199.8,278z"/>
		</g>
		<g>
			<path fill="#FFFFFF" d="M206.7,274.8l-0.5,1.5l-8.3-0.8l0.5-1.5l5.7,0.9l-5.4-2.2l0.5-1.5L206.7,274.8z"/>
		</g>
		<g>
			<path fill="#FFFFFF" d="M207.2,272.8l-7.9-2.2l0.4-1.4l7.9,2.2L207.2,272.8z"/>
		</g>
		<g>
			<path fill="#FFFFFF" d="M208.6,267.7l-4.1,0.1c-0.2,0-0.5,0-0.7,0l0,0c0.2,0,0.4,0.1,0.7,0.2l3.7,1l-0.4,1.3l-7.9-2.2l0.4-1.2
				l3.9-0.1c0.2,0,0.5,0,0.7,0l0,0c-0.2,0-0.5-0.1-0.7-0.2l-3.5-0.9l0.4-1.3l7.9,2.2L208.6,267.7z"/>
		</g>
		<g>
			<path fill="#FFFFFF" d="M206.2,260.2c3.3,0.9,4.2,2.1,3.8,3.4c-0.4,1.3-1.7,1.9-4.7,1c-3-0.9-3.7-2.1-3.3-3.3
				c0.4-1.2,1.5-1.7,3.5-1.2l-0.4,1.4c-1.1-0.3-1.5-0.2-1.6,0.2c-0.1,0.4,0.3,0.9,2.4,1.5c2.2,0.6,2.7,0.5,2.8,0
				c0.1-0.3-0.1-0.8-1.3-1.1l-0.3,0.9l-1.4-0.4L206.2,260.2z"/>
		</g>
		<g>
			<path fill="#FFFFFF" d="M206.4,255.6l-0.4,1.4c-0.9-0.3-1.2-0.2-1.3,0.1c-0.1,0.3,0.2,0.6,0.6,0.7c0.7,0.2,1-0.1,1.6-0.6
				c0.7-0.6,1.5-1.1,2.8-0.9c1.3,0.4,2,1.3,1.7,2.7c-0.4,1.3-1.5,1.8-3.2,1.2l0.4-1.4c0.9,0.3,1.3,0.2,1.4-0.2s-0.2-0.6-0.6-0.7
				c-0.7-0.2-1,0.2-1.7,0.7c-0.7,0.6-1.4,1-2.8,0.7c-1.4-0.4-2-1.3-1.6-2.6C203.5,255.5,204.5,255,206.4,255.6z"/>
		</g>
		<g>
			<path fill="#FFFFFF" d="M209.4,285.4l5.5,1.5l-0.4,1.4l-2.1-0.6l-0.3,1l2.1,0.6l-0.4,1.4l-5.5-1.5c-1.7-0.5-2.2-1.5-1.9-2.7
				C206.7,285.5,207.7,284.9,209.4,285.4z M209,286.8c-0.7-0.2-1-0.1-1.1,0.3c-0.1,0.3,0.2,0.6,0.9,0.9l2,0.6l0.3-1L209,286.8z"/>
		</g>
		<g>
			<path fill="#FFFFFF" d="M211.5,280.8l-0.4,1.4c-1.4-0.4-1.8-0.4-1.9,0c-0.1,0.4,0.3,0.8,2.5,1.3c2.2,0.6,2.7,0.5,2.8,0.1
				c0.1-0.4-0.2-0.6-1.6-0.9l0.4-1.4c2.4,0.7,2.9,1.6,2.7,2.8c-0.4,1.3-1.6,1.9-4.7,0.9c-3.1-0.9-3.8-2-3.4-3.2
				C208.1,280.7,209,280.1,211.5,280.8z"/>
		</g>
		<g>
			<path fill="#FFFFFF" d="M212.7,276.1l-0.4,1.4c-1.4-0.4-1.8-0.4-1.9,0s0.3,0.8,2.5,1.3c2.2,0.6,2.7,0.5,2.8,0.1
				c0.1-0.4-0.2-0.6-1.6-0.9l0.4-1.4c2.4,0.7,2.9,1.6,2.7,2.8c-0.4,1.3-1.6,1.9-4.7,0.9c-3.1-0.9-3.8-2-3.4-3.2
				C209.4,276.1,210.4,275.5,212.7,276.1z"/>
		</g>
		<g>
			<path fill="#FFFFFF" d="M214.9,271.6c3.1,0.9,3.9,1.9,3.5,3.2c-0.4,1.3-1.5,1.8-4.7,0.9s-3.8-1.9-3.4-3.2
				C210.7,271.3,211.8,270.7,214.9,271.6z M214.2,274.3c2.2,0.6,2.7,0.5,2.8,0.1c0.1-0.4-0.3-0.8-2.5-1.3c-2.2-0.6-2.8-0.5-2.8-0.1
				C211.6,273.4,212.1,273.8,214.2,274.3z"/>
		</g>
		<g>
			<path fill="#FFFFFF" d="M217.9,267.5c1.8,0.5,2.2,1.5,1.9,2.7c-0.3,1-1.1,1.8-2.9,1.2l-5.5-1.5l0.4-1.4l5.7,1.6
				c0.6,0.2,0.9,0.1,0.9-0.3c0.1-0.3-0.2-0.6-0.7-0.8l-5.7-1.6l0.4-1.4L217.9,267.5z"/>
		</g>
		<g>
			<path fill="#FFFFFF" d="M221.2,264.6l-4.1,0.1c-0.2,0-0.5,0-0.7,0l0,0c0.2,0,0.4,0.1,0.7,0.2l3.7,1l-0.4,1.3l-7.9-2.2l0.4-1.2
				l3.9-0.1c0.2,0,0.5,0,0.7,0l0,0c-0.2,0-0.5-0.1-0.7-0.2l-3.5-0.9l0.4-1.3l7.9,2.2L221.2,264.6z"/>
		</g>
		<g>
			<path fill="#FFFFFF" d="M216,258.3l6.5,1.8l-0.4,1.4l-6.5-1.8l-0.4,1.2l-1.4-0.4l1.1-4l1.4,0.4L216,258.3z"/>
		</g>
	</g>
	<g>
		<g>
			<path fill="#FFFFFF" d="M295.3,289.7c0.7-4.2,3.4-5.9,7-5.2c4,0.7,5.9,3.4,5.2,7.3v0.1l3.5,0.6l-0.6,3.5l-15.8-2.6L295.3,289.7z
				 M304.4,290.7c0.2-1.4-0.9-2.4-2.5-2.7c-1.6-0.3-2.8,0.2-3,1.7l-0.1,0.7l5.5,0.9L304.4,290.7z"/>
		</g>
		<g>
			<path fill="#FFFFFF" d="M303.8,272.4l10.3,1.6l-0.6,3.5l-3.9-0.7l-0.6,3.7l3.9,0.7l-0.6,3.5l-10.3-1.7c-3.8-0.6-5.3-3.1-4.8-6.3
				C297.7,273.9,300,271.9,303.8,272.4z M303.1,276c-1.4-0.2-2.5,0.4-2.7,1.5s0.6,2,2,2.3l3,0.5l0.6-3.7L303.1,276z"/>
		</g>
		<g>
			<path fill="#FFFFFF" d="M306.6,260.7c3,0.5,4.6,2.2,4.8,4.5l4,0.7l-0.6,3.5l-4-0.7c-0.9,2.1-2.9,3.2-6,2.8l-6.4-1l0.6-3.5l6.5,1
				c1.3,0.2,2.3-0.3,2.5-1.5c0.2-1.2-0.6-2-1.9-2.2l-6.5-1l0.6-3.5L306.6,260.7z"/>
		</g>
		<g>
			<path fill="#FFFFFF" d="M326.6,292c3.4,0.6,4.2,3,3.8,5.4l-0.5,2.9l-15.8-2.6l0.5-2.8c0.4-2.6,1.9-4.5,4.8-4
				c1.7,0.3,2.8,1.2,3.1,2.5C323.3,292.4,324.6,291.7,326.6,292z M317.2,295.5l3.8,0.6c0.1-1-0.3-2-1.6-2.2
				C318,293.7,317.4,294.5,317.2,295.5z M327.6,297.1c0.2-1.1-0.4-2.1-1.7-2.4c-1.2-0.2-2.1,0.5-2.3,1.7l0,0L327.6,297.1
				L327.6,297.1z"/>
		</g>
		<g>
			<path fill="#FFFFFF" d="M331.3,291.2l-15.8-2.6l0.5-2.9l15.8,2.6L331.3,291.2z"/>
		</g>
		<g>
			<path fill="#FFFFFF" d="M330.3,280.1l2.8,0.5l-0.9,5.8l-15.8-2.6l0.5-2.9l13,2.1L330.3,280.1z"/>
		</g>
		<g>
			<path fill="#FFFFFF" d="M331.4,273.2l2.8,0.5l-0.9,5.8l-15.8-2.6l0.5-2.9l13,2.1L331.4,273.2z"/>
		</g>
		<g>
			<path fill="#FFFFFF" d="M324.9,263.7l-0.5,2.8c-1.7-0.4-2.5-0.2-2.7,0.5c-0.1,0.6,0.5,1,1.3,1.1c1.4,0.2,2.1-0.5,2.9-1.4
				c1.1-1.2,2.7-2.7,5.3-2.2c2.8,0.5,4.3,2.3,3.9,4.7c-0.4,2.7-2.6,3.8-5.9,3.1l0.5-2.8c1.9,0.4,2.6,0,2.7-0.7
				c0.1-0.8-0.5-1.1-1.2-1.2c-1.3-0.2-2.1,0.6-3.1,1.6c-1.2,1.1-2.7,2.4-5.2,2c-2.8-0.5-4.2-2.2-3.8-4.7
				C319.4,264.1,321.1,262.9,324.9,263.7z"/>
		</g>
	</g>
	<g>
		<g>
			<path fill="#FFFFFF" d="M134.1,391.7c0.2,5.1-1.2,6.8-3.3,6.8c-2,0-3.4-1.6-3.5-6.4c-0.1-4.7,1.5-6.3,3.4-6.3
				c1.9,0,3.1,1.5,3.2,4.5h-2.3c0-1.8-0.4-2.3-0.9-2.3c-0.7,0-1.2,0.8-1.1,4.1c0,3.3,0.5,4.1,1.1,4.1c0.5,0,1-0.5,1.1-2.4h-1.3v-2.2
				H134.1z"/>
		</g>
		<g>
			<path fill="#FFFFFF" d="M141.6,392.1c0.1,4.8-1.1,6.4-3.2,6.4s-3.3-1.4-3.3-6.4c-0.1-4.8,1.1-6.3,3.2-6.3
				C140.3,385.9,141.5,387.3,141.6,392.1z M137.3,392.2c0,3.3,0.4,4.1,1,4.1s0.9-0.8,0.9-4.1c0-3.3-0.4-4.1-1-4.1
				C137.6,388.1,137.2,388.9,137.3,392.2z"/>
		</g>
		<g>
			<path fill="#FFFFFF" d="M149.3,388.2l0.1,10.1h-2.3l-0.1-10.1h-2V386l6.2-0.1v2.2L149.3,388.2z"/>
		</g>
		<g>
			<path fill="#FFFFFF" d="M158.5,392c0.1,4.8-1.1,6.4-3.2,6.4s-3.3-1.4-3.3-6.4c-0.1-4.8,1.1-6.3,3.2-6.3
				C157.2,385.7,158.4,387.1,158.5,392z M154.2,392.1c0,3.3,0.4,4.1,1,4.1c0.7,0,0.9-0.8,0.9-4.1c0-3.3-0.4-4.1-1-4.1
				C154.5,387.9,154.1,388.7,154.2,392.1z"/>
		</g>
		<g>
			<path fill="#FFFFFF" d="M130.8,410.6v2.9h-2.3l-0.1-12.3h1.7c2.8,0,4.3,1.7,4.3,4.5C134.4,408.8,133,410.3,130.8,410.6z
				 M130.7,408.5c0.9,0,1.3-1.1,1.3-2.5c0-1.5-0.5-2.5-1.4-2.4L130.7,408.5z"/>
		</g>
		<g>
			<path fill="#FFFFFF" d="M140.2,409.2l1.2,4.3h-2.3l-0.8-3.3c-0.2,0-0.5,0.1-0.7,0.1l0,0v3.3h-2.3l-0.1-12.3h1.4
				c3.2,0,4.6,1.8,4.6,4.4C141.3,407.3,140.8,408.4,140.2,409.2z M137.6,408.1c0.9,0,1.3-0.9,1.3-2.4c0-1.5-0.5-2.2-1.4-2.2
				L137.6,408.1z"/>
		</g>
		<g>
			<path fill="#FFFFFF" d="M148.6,407.2c0.1,4.8-1.1,6.4-3.2,6.4c-2.1,0-3.3-1.4-3.3-6.4c-0.1-4.8,1.1-6.3,3.2-6.3
				C147.3,401,148.5,402.4,148.6,407.2z M144.4,407.3c0,3.3,0.4,4.1,1,4.1s0.9-0.8,0.9-4.1c0-3.3-0.4-4.1-1-4.1
				S144.3,404,144.4,407.3z"/>
		</g>
		<g>
			<path fill="#FFFFFF" d="M156.4,413.4l-0.1-6.6c0-0.4,0-0.8,0-0.8l0,0c0,0-0.1,0.5-0.2,0.9l-1.3,6.5h-1.4l-1.4-6.5
				c-0.1-0.4-0.2-0.9-0.2-0.9l0,0c0,0,0,0.4,0,0.8l0.1,6.6h-2.1l-0.1-12.3h2.7l1.8,8.3l1.6-8.3h2.7l0.1,12.3H156.4z"/>
		</g>
	</g>
	<g>
		<polygon fill="#854D76" points="166.4,348 162.5,360.1 170.7,369 158.1,369.7 152,379.7 147.7,368.5 136.2,365.1 145.5,358.2 
			145.1,345.7 154.7,353 		"/>
		<path fill="#FFFFFF" d="M151.7,383.2l-5.2-13.3l-13.8-4.1l11.2-8.5l-0.6-15l11.6,8.7l14-5.9l-4.6,14.4l9.8,10.8l-15,0.8
			L151.7,383.2z M139.7,364.6l9.1,2.7l3.5,8.8l4.9-7.9l10-0.6l-6.5-7.1l3-9.6l-9.3,3.9l-7.7-5.8l0.4,10L139.7,364.6z"/>
	</g>
	<g>
		<g>
			<path fill="#FFFFFF" d="M274,609.7l5.7,1l-0.3,1.5l-2.2-0.4l-0.2,1.1l2.2,0.4l-0.3,1.5l-5.7-1c-1.7-0.3-2.4-1.4-2.2-2.6
				C271.3,610.1,272.3,609.4,274,609.7z M273.7,611.3c-0.8-0.1-1.1,0-1.1,0.4c-0.1,0.4,0.2,0.6,0.9,0.8l2.1,0.4l0.2-1.1L273.7,611.3
				z"/>
		</g>
		<g>
			<path fill="#FFFFFF" d="M278.3,607.9l2,0.4l-0.3,1.5l-8.2-1.5l0.2-1.1c0.4-1.9,1.7-2.6,3.5-2.3
				C277.4,605.3,278.3,606.4,278.3,607.9z M276.7,607.8c0.1-0.7-0.6-1-1.5-1.2s-1.7,0-1.8,0.6L276.7,607.8z"/>
		</g>
		<g>
			<path fill="#FFFFFF" d="M279.1,603.4l2,0.4l-0.3,1.5l-8.2-1.5l0.2-1.1c0.4-1.9,1.7-2.6,3.5-2.3
				C278.3,600.6,279.2,601.9,279.1,603.4z M277.6,603.1c0.1-0.7-0.6-1-1.5-1.2s-1.7,0-1.8,0.6L277.6,603.1z"/>
		</g>
		<g>
			<path fill="#FFFFFF" d="M280.7,597.3l1.4,0.3l-0.6,3l-8.2-1.5l0.3-1.5l6.7,1.2L280.7,597.3z"/>
		</g>
		<g>
			<path fill="#FFFFFF" d="M278.4,592.8c1.3,0.3,1.9,0.9,2.1,1.7l2.2,0.4l-0.3,1.5l-2.2-0.4c-0.4,0.7-1.2,1.1-2.5,0.9l-3.7-0.7
				l0.3-1.5l3.8,0.7c0.6,0.1,0.9,0,0.9-0.4c0.1-0.4-0.3-0.6-0.8-0.7l-3.8-0.7l0.3-1.5L278.4,592.8z"/>
		</g>
		<g>
			<path fill="#FFFFFF" d="M284.3,611.2l2.2,0.4l0.3-1.3l1.4,0.3l-0.3,1.3l3,0.6l-0.3,1.5l-8.2-1.5l0.6-3.1l1.4,0.3L284.3,611.2z"/>
		</g>
		<g>
			<path fill="#FFFFFF" d="M288.1,605.2c3.2,0.6,4.1,1.6,3.8,3c-0.3,1.4-1.4,2-4.7,1.4c-3.2-0.6-4-1.6-3.7-2.9
				C283.8,605.3,284.8,604.6,288.1,605.2z M287.6,608c2.2,0.4,2.8,0.3,2.8-0.2c0.1-0.4-0.4-0.8-2.7-1.1c-2.3-0.4-2.8-0.3-2.8,0.2
				C284.9,607.3,285.4,607.7,287.6,608z"/>
		</g>
		<g>
			<path fill="#FFFFFF" d="M290,601.4l3-0.3l-0.3,1.5l-2.3,0.1c0,0.2,0,0.3-0.1,0.5l0,0l2.2,0.4l-0.3,1.5l-8.2-1.5l0.2-0.9
				c0.4-2.2,1.8-2.8,3.5-2.5C289,600.4,289.6,600.9,290,601.4z M289,603c0.1-0.7-0.5-1-1.4-1.2c-1-0.2-1.5,0-1.6,0.7L289,603z"/>
		</g>
		<g>
			<path fill="#FFFFFF" d="M296.2,619.1l-0.3,1.5c-1.5-0.3-1.9-0.2-2,0.2c-0.1,0.4,0.4,0.8,2.7,1.1c2.2,0.4,2.8,0.3,2.8-0.2
				c0.1-0.4-0.2-0.6-1.7-0.9l0.3-1.5c2.5,0.5,3.1,1.4,2.9,2.7c-0.3,1.3-1.4,2-4.7,1.4c-3.2-0.6-4-1.6-3.7-3
				C292.8,619.2,293.7,618.6,296.2,619.1z"/>
		</g>
		<g>
			<path fill="#FFFFFF" d="M298,614.2c3.2,0.6,4.1,1.6,3.8,3c-0.3,1.4-1.4,2-4.7,1.4c-3.2-0.6-4-1.6-3.7-2.9
				C293.7,614.3,294.8,613.6,298,614.2z M297.5,617.1c2.2,0.4,2.8,0.3,2.8-0.2c0.1-0.4-0.4-0.8-2.7-1.1c-2.2-0.4-2.8-0.3-2.8,0.2
				C294.8,616.4,295.3,616.7,297.5,617.1z"/>
		</g>
		<g>
			<path fill="#FFFFFF" d="M301.4,610.9l1.4,0.3l-0.6,3l-8.2-1.5l0.3-1.5l6.7,1.2L301.4,610.9z"/>
		</g>
		<g>
			<path fill="#FFFFFF" d="M302.1,607.3l1.4,0.3l-0.6,3l-8.2-1.5l0.3-1.5l6.7,1.2L302.1,607.3z"/>
		</g>
		<g>
			<path fill="#FFFFFF" d="M297.2,604.2l2.1,0.4l0.3-1.3l1.4,0.3l-0.2,1.3l1.7,0.3l0.3-1.6l1.4,0.3l-0.6,3.1l-8.2-1.5l0.6-3.1
				l1.4,0.3L297.2,604.2z"/>
		</g>
		<g>
			<path fill="#FFFFFF" d="M300.8,598c3.4,0.6,4.4,1.7,4.1,3.1c-0.3,1.3-1.5,2.1-4.7,1.5s-4-1.8-3.7-3.1c0.3-1.3,1.4-1.9,3.4-1.5
				l-0.3,1.5c-1.2-0.2-1.6,0-1.7,0.3c-0.1,0.5,0.4,0.9,2.6,1.3c2.3,0.4,2.8,0.2,2.8-0.2c0.1-0.4-0.2-0.8-1.4-1l-0.2,0.9l-1.4-0.3
				L300.8,598z"/>
		</g>
		<g>
			<path fill="#FFFFFF" d="M298.9,595.2l2.1,0.4l0.3-1.3l1.4,0.3l-0.3,1.3l1.7,0.3l0.3-1.6l1.4,0.3l-0.6,3.1l-8.2-1.5l0.6-3.1
				l1.4,0.3L298.9,595.2z"/>
		</g>
	</g>
	<g>
		<g>
			<path fill="#FFFFFF" d="M511.5,514.5l4.4,0.9l3.2-14.9l-4.3-0.9c-4.8-1-8.5,1.2-9.5,5.7C504.2,509.8,506.6,513.5,511.5,514.5z
				 M510.1,506.3c0.4-1.6,1.5-2.5,3.2-2.2l-1.2,5.6C510.7,509.3,509.7,508.2,510.1,506.3z"/>
		</g>
		<g>
			<path fill="#FFFFFF" d="M496.4,511c3.8,0.9,6.8-1.1,7.7-5.1l1.8-8.3l-4.7-1l-0.6,2.8l-3.1-0.7l0.6-2.8l-4.7-1l-1.8,8.3
				C490.6,507.1,492.5,510.2,496.4,511z M496.2,504.2l0.3-1.1l3.1,0.7l-0.3,1.1c-0.1,0.6-0.6,1.8-2,1.5
				C495.9,506.1,496.1,504.8,496.2,504.2z"/>
		</g>
		<g>
			<path fill="#FFFFFF" d="M480.8,509.5l1.5-6.8c0.3-1.2,0.9-1.7,1.9-1.5c1,0.2,1.4,0.9,1.1,2.2l-0.9,4.3l4.7,1l0.9-4.3
				c0.7-3.1-0.3-5.6-2.7-6.9l0.8-3.4l-4.7-1l-0.8,3.4c-2.7,0.3-4.6,2.2-5.2,5.2l-1.5,6.8L480.8,509.5z"/>
		</g>
		<g>
			<path fill="#FFFFFF" d="M511.5,522.9h-0.2l-0.9,1.2l0.7,0.1c0,0,0.4,0.6-1.8,4.4c-2.1,3.5-4.3,4.9-7,4.4c-1.1-0.3-1.7-0.6-1.9-1
				c-0.4-0.9,0.1-2.3,1.6-5.3c1.9-3.6,2.6-4,3.1-3.9c0.1,0,0.1,0,0.1,0c0.2,0.3-0.5,1.6-1.1,2.8c-0.1,0.3-0.3,0.6-0.5,0.9l-0.9,1.7
				c-0.4,0.7-0.3,1.1-0.2,1.5c0.4,1,2,1.6,2.8,1.9l0.3,0.1l6-9.8c1.1-2.1,1.5-3.4,1.1-4.4c-0.4-0.9-1.3-1.2-2.3-1.6l-0.4-0.1
				l-3.8,6.4c0-0.5,0-0.9-0.2-1.2c-0.2-0.4-0.7-0.7-1.2-0.8c-1.2-0.2-4.4-0.1-7.2,5.5c-1.6,3-2.1,5.3-1.3,6.9
				c0.6,1.2,1.8,2.1,3.8,2.5c0.1,0,0.2,0,0.3,0.1c4.5,0.9,9.5-1.3,12.5-5.6c1.4-2.1,2-3.7,1.5-4.8c-0.3-0.9-1.1-1.4-2.4-1.7
				C511.7,522.9,511.6,522.9,511.5,522.9z"/>
		</g>
		<g>
			<path fill="#FFFFFF" d="M486.5,509.7c-2.2-0.4-5.5,1-8.3,6l-5.4,9.8c-0.6,1-0.5,1.7-0.4,2.2c0.2,0.5,0.7,0.9,1.3,1
				c0.4,0.1,0.8,0.1,1,0.2c0.3,0,0.5,0,0.7,0.1l0.3,0.1l3.3-6.1c1.8-3.1,2.8-4.4,3.5-4.3c0,0,0.1,0,0.2,0s0.1,0.1,0.1,0.1
				c0.2,0.6-1.2,2.7-3.2,5.8c-0.4,0.6-0.8,1.1-1.1,1.7c-0.7,0.9-0.9,1.8-0.7,2.4c0.1,0.3,0.4,0.8,1.1,0.9c0.1,0,0.2,0.1,0.3,0.1
				c0.4,0.1,1.2,0.2,1.8,0h0.1l0.1-0.1c1.6-2.5,2.8-4.6,3.6-6.3c2.2-3.3,2.8-3.2,3-3.1c0.1,0,0.1,0.1,0.1,0.1c0.3,0.8-2.4,5-3.7,7
				c-0.7,0.9-0.9,1.7-0.7,2.3c0.2,0.5,0.6,0.8,1.2,0.9c0.4,0.1,0.8,0.1,1,0.2c0.3,0,0.5,0,0.7,0.1l0.3,0.1l0.2-0.3
				c0.1-0.1,0.2-0.3,0.3-0.5c0.2,0.6,0.6,0.9,0.9,1c0.3,0.1,0.6,0.2,0.9,0.3c1.3,0.3,3.9,0.1,6.5-4.3c3-5.3,2.5-8.3,1-9.1
				c-0.3-0.2-0.6-0.3-0.9-0.4c-0.9-0.2-2.5-0.1-4.5,2.5c-0.1-1.5-0.9-2.1-1.5-2.4c-1.2-0.4-2.3-0.1-3.6,1.1c0-0.5,0-0.9-0.1-1.1
				c-0.2-0.7-0.7-1-1.3-1.3s-1.5-0.1-2.4,0.5l1-1.8c1.2-2.1,2.4-4,3.2-3.9h0.1c0.4,0.1,0.7,0.3,0.9,0.7c0.2,0.4,0.1,0.8-0.3,1.2
				c-0.1,0.2-0.2,0.3-0.3,0.3c-0.5,0-1.1,0.5-1.1,1.2c0,0.9,1,1.4,2,1.6c6.3,1.3,10.5-0.9,14-0.2c0,0,0.9,0.2,0.8,0.9
				c-0.1,0.5-0.7,0.7-1.3,0.8c0,0.6,1.3,0.9,1.7,0.9c1.1,0,2.2-0.6,2.6-1.4c1-1.8,0-3.5-2.3-4.2c-5-1.3-10.1,1.6-14.9,1.2
				c0-0.1,0.1-0.1,0.1-0.2c0.6-0.9,0.7-1.9,0.3-2.8C488.4,510.4,487.5,509.8,486.5,509.7C486.6,509.8,486.6,509.7,486.5,509.7z
				 M494,520.5L494,520.5c0.5,0.3-0.2,1.7-2.1,4.9c-0.6,0.9-2.2,3.7-2.8,3.6c0,0-0.1,0-0.2-0.1c-0.3-0.2,0-1,0.9-2.8
				c0-0.1,0.1-0.3,0.3-0.5c0.2-0.4,0.5-0.8,0.6-1C493.1,520.4,493.9,520.5,494,520.5z"/>
		</g>
	</g>
	<g>
		<g>
			<path fill="#FFFFFF" d="M504.6,266.1c1-2.9,3.4-3.2,5.5-2.5l2.6,0.9l-4.9,13.8l-2.5-0.9c-2.2-0.8-3.7-2.5-2.8-5
				c0.6-1.5,1.5-2.3,2.8-2.4C504.4,269.2,504,267.9,504.6,266.1z M506.2,275.1l1.1-3.3c-0.9-0.3-1.8-0.1-2.3,1.1
				C504.7,274.1,505.2,274.8,506.2,275.1z M509.4,266c-1-0.4-2,0-2.4,1.1c-0.4,1.1,0.1,2,1.1,2.4l0,0L509.4,266L509.4,266z"/>
		</g>
		<g>
			<path fill="#FFFFFF" d="M496.6,263.3c1.1-3.1,3-3.7,4.9-3c1.9,0.7,3,2.4,1.9,5.5l-3.5,9.8l-2.6-0.9l3.6-10.1
				c0.3-0.9,0.2-1.6-0.4-1.8c-0.6-0.2-1,0.2-1.4,1.1l-3.6,10.1L493,273L496.6,263.3z"/>
		</g>
		<g>
			<path fill="#FFFFFF" d="M487.4,264c0.8-2.2,2.1-3.1,3.5-3.1l1.3-3.7l2.6,0.9l-1.3,3.7c1,0.9,1.6,2.4,0.8,4.7l-2.2,6.3l-2.6-0.9
				l2.3-6.4c0.3-0.9,0.2-1.6-0.4-1.8c-0.6-0.2-1,0.3-1.4,1.1l-2.3,6.4l-2.6-0.9L487.4,264z"/>
		</g>
		<g>
			<path fill="#FFFFFF" d="M475.1,262.1l3.4-9.7l2.6,0.9l-1.3,3.7l1.9,0.7l1.3-3.7l2.6,0.9l-3.5,9.7c-1,2.9-3,3.7-5,3
				C475.2,266.9,474.1,265,475.1,262.1z M477.8,263c-0.5,1.2-0.3,1.9,0.3,2.1c0.6,0.2,1.1-0.3,1.5-1.4l1.2-3.6l-1.9-0.7L477.8,263z"
				/>
		</g>
		<g>
			<path fill="#FFFFFF" d="M504.7,250.5l3.3,1.2c-0.9,2.4-0.4,3.6,0.9,4c1.2,0.5,2.7-0.2,4-3.8c1.3-3.6,0.6-5-0.7-5.4
				c-1.2-0.5-2.3,0.2-3.2,2.6l-3.3-1.2c1.6-4.6,4.5-5.8,7.7-4.7c3.3,1.1,5,4.3,2.9,10c-2,5.7-5.3,6.9-8.5,5.7
				C504.6,257.7,503.1,255.1,504.7,250.5z"/>
		</g>
		<g>
			<path fill="#FFFFFF" d="M492.7,247.3l3.5-10l3.4,1.2l-1.3,3.8l3.6,1.3l1.3-3.8l3.4,1.2l-3.6,10c-1.3,3.6-4.2,4.7-7.1,3.7
				C493,253.5,491.3,250.9,492.7,247.3z M496.1,248.5c-0.5,1.4-0.1,2.5,1,2.9c1.1,0.4,2.1-0.2,2.7-1.6l1-2.9l-3.6-1.3L496.1,248.5z"
				/>
		</g>
		<g>
			<path fill="#FFFFFF" d="M485.1,238.9l-0.1-5.6l3.5,1.2l-0.1,4.3c0.2,0.1,0.4,0.1,0.7,0.2l0.8,0.3l1.3-3.8l3.4,1.2l-5.4,15.3
				l-3.4-1.2c-4.4-1.5-5.3-4.7-4.2-7.9C482.2,240.7,483.5,239.4,485.1,238.9z M487.8,242.2c-1.2-0.5-2.3,0.3-2.8,1.8
				c-0.6,1.5-0.2,2.7,1.2,3.1l0.7,0.3l1.7-4.9L487.8,242.2z"/>
		</g>
	</g>
	<g>
		<polygon fill="#854D76" points="752.8,289.1 763,296.2 774,291.1 770.9,303.1 778.5,311.8 766.7,312.7 760.3,322.6 756.3,311.7 
			744.3,308.5 754,301.5 		"/>
		<path fill="#FFFFFF" d="M759.8,326.1l-4.7-13l-14.4-3.9l11.7-8.5l-1.5-14.9l12.3,8.5l13-6.1l-3.6,14.4l9.1,10.4l-14.1,1.1
			L759.8,326.1z M747.9,307.9l9.6,2.6l3.1,8.6l5.2-7.9l9.4-0.8l-6.1-6.9l2.4-9.6l-8.6,4.1l-8.2-5.7l0.9,10L747.9,307.9z"/>
	</g>
	<g>
		<polygon fill="#854D76" points="666.4,313.8 677.5,319.4 687.5,312.8 686.2,325.1 694.9,332.7 683.4,335.3 678.3,345.9 
			672.9,335.7 660.6,334.2 669.3,325.9 		"/>
		<path fill="#FFFFFF" d="M678.3,349.5l-6.5-12.3l-14.8-1.9l10.4-10l-3.5-14.6l13.4,6.7l12.1-7.9l-1.6,14.8l10.4,9.1l-13.9,3
			L678.3,349.5z M664.1,333l9.8,1.2l4.3,8.2l4.1-8.5l9.2-2l-6.9-6.1l1-9.9l-8.1,5.2l-8.9-4.5l2.4,9.7L664.1,333z"/>
	</g>
	<g>
		<polygon fill="#854D76" points="586.6,427.3 597.4,433.6 607.9,427.7 605.8,440 614,448 602.4,449.8 596.6,460.2 591.9,449.6 
			579.7,447.4 588.8,439.7 		"/>
		<path fill="#FFFFFF" d="M596.5,463.7l-5.7-12.6l-14.6-2.8l11-9.3l-2.7-14.8l13,7.6l12.5-7.1l-2.5,14.7l9.9,9.7l-14.1,2.2
			L596.5,463.7z M583.3,446.4l9.7,1.8l3.8,8.4l4.6-8.3l9.3-1.4l-6.6-6.5l1.6-9.8l-8.4,4.7l-8.6-5l1.7,9.8L583.3,446.4z"/>
	</g>
	<g>
		<polygon fill="#854D76" points="498,437.5 491.3,426.9 479.4,427.3 486.9,417.5 483.3,406.5 494.5,410.2 504.4,403.8 503.7,415.3 
			513.5,423 501.8,425.6 		"/>
		<path fill="#FFFFFF" d="M498.5,441.3l-8-12.7l-14.4,0.5l9-11.9l-4.3-13.2l13.5,4.6l11.9-7.9l-0.8,13.9l11.8,9.2l-14.1,3.2
			L498.5,441.3z M492.2,425.3l5.3,8.5l2.9-9.5l9.3-2.1l-7.8-6.1l0.5-9.2l-7.9,5.2l-8.9-3l2.8,8.7l-6,7.9L492.2,425.3z"/>
	</g>
	<g>
		<polygon fill="#854D76" points="320.6,190.6 329,181.2 325.3,169.8 336.8,174.3 346.3,167.8 345.9,179.6 354.8,187.3 343.6,189.8 
			338.9,201.3 333.1,190.9 		"/>
		<path fill="#FFFFFF" d="M339.1,205l-6.9-12.6l-15-0.4l10-11.2l-4.5-13.7l14,5.3l11.5-7.8l-0.7,14.1l10.8,9.2l-13.6,3L339.1,205z
			 M324.1,189.1l10,0.2l4.7,8.4l3.7-9.2l9-2.1l-7.2-6.1l0.4-9.4L337,176l-9.2-3.5l2.9,9.1L324.1,189.1z"/>
	</g>
	<g>
		<g>
			<path fill="#FFFFFF" d="M768.4,340.1c1.6,3.2,1.2,4.7-0.1,5.3c-1.2,0.6-2.7,0-4-2.9c-1.4-2.9-0.9-4.4,0.4-4.9
				c1.2-0.6,2.4,0,3.3,1.9l-1.4,0.7c-0.6-1.1-0.9-1.3-1.2-1.1c-0.4,0.2-0.6,0.9,0.5,2.9s1.5,2.4,1.9,2.2c0.3-0.2,0.5-0.7,0-1.8
				l-0.9,0.4l-0.7-1.4L768.4,340.1z"/>
		</g>
		<g>
			<path fill="#FFFFFF" d="M772.9,339.8l2,2.4l-1.4,0.7l-1.4-1.9c-0.1,0.1-0.3,0.2-0.4,0.2l0,0l0.9,2.1l-1.4,0.7l-3.6-7.7l0.9-0.4
				c2-0.9,3.4-0.2,4.2,1.4C773.1,338.3,773.1,339.1,772.9,339.8z M771,339.8c0.7-0.3,0.6-0.9,0.2-1.9c-0.5-0.9-0.9-1.2-1.5-0.9
				L771,339.8z"/>
		</g>
		<g>
			<path fill="#FFFFFF" d="M776.8,334.6l2.6,5.4l-1.4,0.7l-0.9-2.1l-1,0.5l0.9,2.1l-1.4,0.7l-2.6-5.4c-0.8-1.6-0.3-2.8,0.9-3.3
				C774.8,332.7,776,332.9,776.8,334.6z M775.4,335.2c-0.3-0.7-0.7-0.9-0.9-0.8c-0.3,0.2-0.4,0.6,0,1.2l0.9,2l1-0.5L775.4,335.2z"/>
		</g>
		<g>
			<path fill="#FFFFFF" d="M777.8,331.4c2.1-0.9,3.5,0.2,4.6,2.5c1,2.2,1.1,4.3-0.9,5.2l-1.1,0.6l-3.6-7.7L777.8,331.4z M781,337.6
				c0.9-0.4,0.7-1.4-0.1-3c-0.8-1.5-1.3-2.3-2.2-1.9L781,337.6z"/>
		</g>
		<g>
			<path fill="#FFFFFF" d="M787.5,333.4c0.9,1.7,0.3,2.8-0.8,3.2c-1,0.5-2.2,0.3-3-1.4l-2.6-5.4l1.4-0.7l2.7,5.6
				c0.3,0.5,0.6,0.8,0.9,0.6c0.3-0.2,0.4-0.6,0.1-1l-2.7-5.6l1.4-0.7L787.5,333.4z"/>
		</g>
		<g>
			<path fill="#FFFFFF" d="M790.7,328l2.6,5.4l-1.4,0.7l-0.9-2.1l-1,0.5l0.9,2.1l-1.4,0.7l-2.6-5.4c-0.8-1.6-0.3-2.8,0.9-3.3
				C788.7,326.1,789.9,326.4,790.7,328z M789.2,328.7c-0.3-0.7-0.7-0.9-0.9-0.8c-0.3,0.2-0.4,0.6,0,1.2l0.9,2l1-0.5L789.2,328.7z"/>
		</g>
		<g>
			<path fill="#FFFFFF" d="M793.2,325.7l2.9,6.3l-1.4,0.7l-2.9-6.3l-1.2,0.6l-0.7-1.4l3.9-1.8l0.7,1.4L793.2,325.7z"/>
		</g>
		<g>
			<path fill="#FFFFFF" d="M796.5,324.2l0.9,1.9l1.2-0.6l0.7,1.3l-1.2,0.6l0.8,1.6l1.5-0.8l0.7,1.3l-2.9,1.4l-3.6-7.7l2.9-1.4
				l0.7,1.3L796.5,324.2z"/>
		</g>
		<g>
			<path fill="#FFFFFF" d="M769,348.6l0.7,1.4l0.9-0.4l0.5,0.9l-0.9,0.4l0.9,2.1l-1,0.5l-2.6-5.5l2.1-0.9l0.5,0.9L769,348.6z"/>
		</g>
		<g>
			<path fill="#FFFFFF" d="M773.9,349.5l1.4,1.7l-1,0.5l-1-1.3c-0.1,0.1-0.2,0.1-0.3,0.2l0,0l0.7,1.5l-1,0.5L770,347l0.7-0.3
				c1.4-0.7,2.5-0.2,2.9,1C774,348.3,774,349,773.9,349.5z M772.5,349.5c0.5-0.2,0.4-0.7,0.1-1.3c-0.3-0.7-0.7-0.9-1-0.7
				L772.5,349.5z"/>
		</g>
		<g>
			<path fill="#FFFFFF" d="M777.3,346.8c1,2.2,0.8,3.1-0.1,3.5c-0.9,0.5-1.8,0-2.8-2.2s-0.8-3,0.2-3.5
				C775.4,344.2,776.2,344.6,777.3,346.8z M775.4,347.7c0.7,1.5,1,1.8,1.3,1.6c0.3-0.2,0.3-0.6-0.5-2.1c-0.7-1.5-1-1.8-1.3-1.6
				C774.6,345.9,774.7,346.2,775.4,347.7z"/>
		</g>
		<g>
			<path fill="#FFFFFF" d="M782,347.9l-1.4-2.9c-0.1-0.2-0.2-0.4-0.2-0.4l0,0c0,0,0.1,0.2,0.1,0.4l0.8,3.2l-0.7,0.3l-2-2.7
				c-0.1-0.1-0.3-0.3-0.3-0.3l0,0c0,0,0.1,0.2,0.2,0.4l1.4,2.9l-0.9,0.5l-2.6-5.5l1.1-0.6l2.6,3.3l-1-4.1l1.1-0.6l2.6,5.5L782,347.9
				z"/>
		</g>
		<g>
			<path fill="#FFFFFF" d="M786.1,341.9l-1,0.5c-0.5-1-0.7-1.2-0.9-1c-0.3,0.1-0.3,0.6,0.5,2.1c0.8,1.5,1,1.8,1.3,1.6
				c0.3-0.1,0.3-0.4-0.2-1.4l1-0.5c0.8,1.7,0.6,2.5-0.3,2.8c-0.9,0.4-1.8,0-2.8-2.2s-0.8-3,0.2-3.5
				C784.6,340,785.3,340.2,786.1,341.9z"/>
		</g>
		<g>
			<path fill="#FFFFFF" d="M789.8,340.9c1,2.2,0.8,3.1-0.1,3.5c-0.9,0.5-1.8,0-2.8-2.2c-1-2.2-0.8-3,0.2-3.5
				C787.9,338.3,788.8,338.7,789.8,340.9z M787.8,341.9c0.7,1.5,1,1.8,1.3,1.6c0.3-0.1,0.3-0.6-0.5-2.1c-0.7-1.5-1-1.8-1.3-1.6
				C787.2,339.9,787.2,340.3,787.8,341.9z"/>
		</g>
		<g>
			<path fill="#FFFFFF" d="M793.1,341.5l0.5,0.9l-2,0.9l-2.6-5.5l1-0.5l2.1,4.6L793.1,341.5z"/>
		</g>
		<g>
			<path fill="#FFFFFF" d="M795.6,340.3l0.5,0.9l-2,0.9l-2.6-5.5l1-0.5l2.1,4.6L795.6,340.3z"/>
		</g>
		<g>
			<path fill="#FFFFFF" d="M795.3,336.2l0.7,1.4l0.9-0.4l0.5,0.9l-0.9,0.4l0.6,1.1l1-0.5l0.5,0.9l-2.1,1l-2.6-5.5l2.1-1l0.5,0.9
				L795.3,336.2z"/>
		</g>
		<g>
			<path fill="#FFFFFF" d="M800.5,335.5c1.1,2.3,0.9,3.3-0.1,3.8c-0.9,0.4-1.9,0-2.8-2.1c-0.9-2.1-0.6-3.1,0.3-3.5
				c0.9-0.4,1.7,0,2.4,1.3l-1,0.5c-0.4-0.9-0.7-0.9-0.9-0.9c-0.3,0.1-0.4,0.6,0.3,2.1c0.8,1.5,1,1.7,1.3,1.6c0.2-0.1,0.4-0.5,0-1.3
				l-0.6,0.3l-0.5-0.9L800.5,335.5z"/>
		</g>
		<g>
			<path fill="#FFFFFF" d="M801.4,333.2l0.7,1.4l0.9-0.4l0.5,0.9l-0.9,0.4l0.6,1.1l1-0.5l0.5,0.9l-2.1,1l-2.6-5.5l2.1-1l0.5,0.9
				L801.4,333.2z"/>
		</g>
	</g>
</g>
</svg>
