<?xml version="1.0" encoding="utf-8"?>
<!-- Generator: Adobe Illustrator 17.1.0, SVG Export Plug-In . SVG Version: 6.00 Build 0)  -->
<!DOCTYPE svg PUBLIC "-//W3C//DTD SVG 1.1//EN" "http://www.w3.org/Graphics/SVG/1.1/DTD/svg11.dtd">
<svg version="1.1" id="Layer_1" xmlns="http://www.w3.org/2000/svg" xmlns:xlink="http://www.w3.org/1999/xlink" x="0px" y="0px"
	 viewBox="0 0 960 720" enable-background="new 0 0 960 720" xml:space="preserve">
<g>
	<rect y="18.6" fill="#F7F5DF" width="920.4" height="603.7"/>
	<g>
		<g>
			<g>
				<polygon fill="#D6E8E4" points="619.9,301.6 358.5,304.7 320.9,191.6 358.5,81.6 619.9,78.4 				"/>
				<polygon fill="#D6E8E4" points="841.5,300 646.3,303.1 641.8,83.2 836.8,80.1 				"/>
				
					<rect x="339.4" y="339.8" transform="matrix(-0.9999 -1.384158e-02 1.384158e-02 -0.9999 917.8771 905.9232)" fill="#D6E8E4" width="245.4" height="219.9"/>
				<polygon fill="#D6E8E4" points="850.6,563.1 605.3,556.3 611.2,336.5 856.5,343.2 891.3,459.1 				"/>
			</g>
			<g>
				<polygon fill="#874E78" points="609.6,287.9 348.3,291.1 310.8,178 348.3,68 609.6,64.8 				"/>
				<polygon fill="#50B5DD" points="831.2,286.4 636.2,289.5 631.5,69.6 826.6,66.4 				"/>
				
					<rect x="329.1" y="326.2" transform="matrix(-0.9999 -1.384158e-02 1.384158e-02 -0.9999 897.6145 878.5106)" fill="#92734F" width="245.4" height="219.9"/>
				<polygon fill="#DD6E24" points="840.4,549.5 595,542.7 601.1,322.9 846.4,329.6 881,445.6 				"/>
			</g>
		</g>
		<path fill="#0C2629" d="M587.1,199.8h-15.3l-0.3,4.1c-2.4,29.8-18.3,42.6-52.9,42.6c-38-0.2-54.3-18.7-54.3-61.8
			c-0.1-25.3,4-41.1,12.8-50c6.3-6.3,15.4-9.2,27.9-9.1l4.5,0.1V111H390v14.7l4.5-0.1c10.1-0.1,17.2,2.1,22.1,7
			c8,8,11.4,24.1,11.3,52.3c0,51.8-11.2,61.4-33.3,61.6h-4.5v14.8h194.3l-0.3-4.7c-0.5-8.6-0.3-20.8,2.4-51.8L587.1,199.8z"/>
		<path fill="#0C2629" d="M784.1,125.8l4.5,0.1v-15H673.8v14.8l4.5-0.1c0.3,0,0.7,0,1,0c23,0,33.9,8.8,33.9,59.2
			c-0.2,42.3-5.3,61.1-34.7,61.4h-4.5v15h114v-15h-4.5c-22.1-0.1-34.1-10-34.3-61.4c0-22.8,2.5-37.6,7.9-46.7
			C762.3,129.5,770.6,125.6,784.1,125.8z"/>
		<path fill="#0C2629" d="M540.8,429.2H557l-0.4-4.8c-2.2-26.4-2.4-38.6-0.9-50.1l0.7-5.1H358.4V384l4.5-0.1c0.3,0,0.5,0,0.9,0
			c21.1,0,32.5,9.5,32.5,59.2c-0.2,51.7-11.4,61.3-33.5,61.4h-4.5v15H480v-15.1h-4.5c-29.9-0.2-41.1-13.2-43-51h38.7
			c13.6,0,20.3,1.1,23.1,3.8c1.9,1.9,2.6,5.4,2.5,11.8v4.5h15.1v-54.2H497l0.1,4.5c0.1,5.5-0.7,8.7-2.4,10.6c-2.7,2.7-9.2,4-22,4
			h-40.1c1-39.7,15.2-54.1,52.7-54.4h4.6c20.8,0,34.6,4,42.4,12.1c6.2,6.4,9,15.7,8.6,28.6L540.8,429.2z"/>
		<path fill="#0C2629" d="M826.6,462.9h-15.7v4.5c0,23.5-7.6,37.2-46.2,37.2h-11.9c-34.1-0.2-46.7-13.6-48.5-53h38.2
			c14.8,0,22.1,1.2,25,4.2c1.8,1.8,2.5,4.9,2.4,10.7l-0.1,4.5h15.1v-53.4h-15.1l0.1,4.5c0.1,5.4-0.7,8.6-2.5,10.4
			c-3,3-10,4.3-23.8,4.3h-39.5c1.2-38.9,13.5-52.2,47.3-52.7h10.3c18.7,0,31.2,3.5,38.4,10.8c5.7,5.8,8.5,14.5,8.4,26.5v4.5h15.9
			l-0.4-4.9c-2.2-23.3-2.4-35.1-0.7-46.6l0.8-5.2H627.2v14.8l4.5-0.1c10.9-0.1,18.4,2.2,23.6,7.5c8.1,8.1,11.8,24.1,11.5,51.6
			c0,23.9-2.5,39.3-7.9,48.5c-5.2,8.8-13.5,12.9-27.2,12.9h-4.5v15h198.5l-0.7-5.1c-1.5-11.5-1.3-23.8,0.9-46.6L826.6,462.9z"/>
		<path fill="#FFFFFF" d="M577.2,189.8h-15.3l-0.3,4.1c-2.4,29.8-18.3,42.6-52.9,42.6c-38-0.2-54.3-18.7-54.3-61.8
			c-0.1-25.3,4-41.1,12.8-50c6.3-6.3,15.4-9.2,27.9-9.1l4.5,0.1V101H380.2v14.7l4.5-0.1c10.1-0.1,17.2,2.1,22.1,7
			c8,8,11.4,24.1,11.3,52.3c0,51.8-11.2,61.4-33.3,61.6h-4.5v14.8h194.3l-0.3-4.7c-0.5-8.6-0.3-20.8,2.4-51.8L577.2,189.8z"/>
		<path fill="#FFFFFF" d="M773.2,115.8c0.3,0,0.5,0,0.9,0l4.5,0.1v-15H663.9v14.8l4.5-0.1c0.3,0,0.7,0,1,0c23,0,33.9,8.8,33.9,59.2
			c-0.2,42.3-5.3,61.1-34.7,61.4H664v15h114v-14.8h-4.5c-22.1-0.1-34.1-10-34.3-61.4C739.3,125.5,751.7,115.8,773.2,115.8z"/>
		<path fill="#FFFFFF" d="M530.8,419.3H547l-0.4-4.8c-2.2-26.4-2.4-38.6-0.9-50.1l0.7-5.1H348.6v14.8l4.5-0.1c0.3,0,0.5,0,0.9,0
			c21.1,0,32.5,9.5,32.5,59.2c-0.2,51.7-11.4,61.3-33.5,61.4h-4.5v15h121.7v-15.1h-4.5c-29.9-0.2-41.1-13.2-43-51h38.7
			c13.6,0,20.3,1.1,23.1,3.8c1.9,1.9,2.6,5.4,2.5,11.8v4.5h15.1v-54.2H487l0.1,4.5c0.1,5.5-0.7,8.7-2.4,10.6c-2.7,2.7-9.2,4-22,4
			h-40.1c1-39.7,15.2-54.1,52.7-54.4h4.6c20.8,0,34.6,4,42.4,12.1c6.2,6.4,9,15.7,8.6,28.6L530.8,419.3z"/>
		<path fill="#FFFFFF" d="M816.6,453h-15.7v4.5c0,23.5-7.6,37.2-46.2,37.2h-11.9c-34.1-0.2-46.7-13.6-48.5-53h38.2
			c14.8,0,22.1,1.2,25,4.2c1.8,1.8,2.5,4.9,2.4,10.7l-0.1,4.5h15.1v-53.4h-15l0.1,4.5c0.1,5.4-0.7,8.6-2.5,10.4
			c-3,3-10,4.3-23.8,4.3h-39.5c1.2-38.9,13.5-52.2,47.3-52.7h10.3c18.7,0,31.2,3.5,38.4,10.8c5.7,5.8,8.5,14.5,8.4,26.5v4.5h15.9
			l-0.4-4.9c-2.2-23.3-2.4-35.1-0.7-46.6l0.8-5.2H617.3V374l4.5-0.1c10.9-0.2,18.4,2.2,23.6,7.5c8.1,8.1,11.8,24.1,11.5,51.6
			c0,23.9-2.5,39.3-7.9,48.5c-5.2,8.8-13.5,12.9-27.2,12.9h-4.5v15h198.5l-0.7-5.1c-1.5-11.5-1.3-23.8,0.9-46.6L816.6,453z"/>
	</g>
	<g>
		<path fill="#0C2629" d="M220.7,450.6c-28.6,0-51.9,23.3-51.9,51.9s23.3,51.9,51.9,51.9s51.9-23.3,51.9-51.9
			S249.4,450.6,220.7,450.6z"/>
		<path fill="#FFFFFF" d="M211.1,438.7c-29.7,0-53.8,24.1-53.8,53.8c0,29.7,24.1,53.8,53.8,53.8s53.8-24.1,53.8-53.8
			C264.9,462.8,240.8,438.7,211.1,438.7z"/>
		<g>
			<path fill="#874E78" d="M90.3,96.1v93.7H63.9V96.1H36.9V70.5h80.6V96H90.3V96.1z"/>
			<path fill="#874E78" d="M205.2,189.8h-26.4v-40.9h-26v40.9h-26.4V70.5h26.4v52.8h26V70.5h26.4V189.8z"/>
			<path fill="#874E78" d="M246.5,95.9v23.3h28.8v25.2h-28.8v20.2h35.7l-0.2,25.1h-62V70.5h62v25.4H246.5z"/>
		</g>
		<g>
			<path fill="#874E78" d="M54.5,221.4v11h6.9v11h-6.9v18.8H43v-51.8h20.3v11H54.5z"/>
			<path fill="#874E78" d="M67.2,262.2v-51.8h11.4v51.8H67.2z"/>
			<path fill="#874E78" d="M101.6,262.2l-6-20.9c-0.1-0.5-0.5-1.8-0.9-3.4h-0.1c0.1,1.8,0.1,2.5,0.1,3.5v20.8H84.1v-51.8h9.7
				l5.6,19.4c0.3,1,0.5,1.8,1,3.3h0.1c-0.1-1.4-0.1-2.4-0.1-3.5v-19H111v51.8h-9.3V262.2z"/>
			<path fill="#874E78" d="M143.8,225.2v36.9h-11.4v-12.9h-4.8v12.9H116l0.1-36.9c0-10.6,6.3-15.6,13.9-15.6
				C137.6,209.6,143.8,214.7,143.8,225.2z M132.3,225.1c0-2.7-0.8-4.4-2.4-4.4c-1.6,0-2.4,1.6-2.4,4.4v13.2h4.7v-13.2H132.3z"/>
			<path fill="#874E78" d="M166.3,262.2l-6-20.9c-0.1-0.5-0.5-1.8-0.9-3.4h-0.1c0.1,1.8,0.1,2.5,0.1,3.5v20.8h-10.6v-51.8h9.7
				l5.6,19.4c0.3,1,0.5,1.8,1,3.3h0.1c-0.1-1.4-0.1-2.4-0.1-3.5v-19h10.6v51.8h-9.3V262.2z"/>
			<path fill="#874E78" d="M208.2,231h-11.3c0.2-8.9-0.4-10.6-2.1-10.6s-3,2.2-3,15.7c0,13.5,1.2,15.6,3,15.6
				c1.6,0,2.2-1.3,2.1-10.4h11.4c0.1,16.6-5.2,21.6-13.4,21.6c-8.9,0-14.7-6.3-14.7-27.1s5.9-26.3,14.8-26.3
				C203,209.6,208.4,214.4,208.2,231z"/>
			<path fill="#874E78" d="M212.7,262.2v-51.8h11.4v51.8H212.7z"/>
			<path fill="#874E78" d="M257,225.2v36.9h-11.4v-12.9h-4.7v12.9h-11.5l0.1-36.9c0-10.6,6.3-15.6,13.9-15.6
				C250.8,209.6,257,214.7,257,225.2z M245.6,225.1c0-2.7-0.8-4.4-2.4-4.4c-1.6,0-2.4,1.6-2.4,4.4v13.2h4.7v-13.2H245.6z"/>
			<path fill="#874E78" d="M281.8,251.3v10.9H262v-51.8h11.4v40.9L281.8,251.3L281.8,251.3z"/>
		</g>
		<g>
			<path fill="#0C2629" d="M194.7,473.4c-11,0-18,8.1-18,20.7c0,12.6,7.1,20.8,18,20.8s17.9-8.1,17.9-20.8
				C212.7,481.6,205.6,473.4,194.7,473.4z M194.7,504.3c-4.2,0-6.8-4-6.8-10.2s2.6-10.2,6.8-10.2c4.9,0,6.7,5.3,6.7,10.2
				C201.5,500.4,198.8,504.3,194.7,504.3z"/>
			<polygon fill="#0C2629" points="244.3,484.8 244.3,474.1 217.4,474.1 217.4,514.2 228.4,514.2 228.4,500.7 241.9,500.7 
				241.9,490 228.4,490 228.4,484.8 			"/>
		</g>
		<g>
			<path fill="#0C2629" d="M175.8,330.8c5.3,0,9.2-3,11.5-7.5c3.3-6.3,4.9-14.7,4.5-21.8c14.2,5.9,26.4,15.6,40.8,21.1
				c9.3,3.6,21.2,6,30.9,1.8c6.4-2.7,11.2-8.8,11.8-15.8c0.7-9.6-5.9-17.6-15-17.6c-3.2,0-6.6,1.9-6.5,2.5c0.1,1.5,0.4,1.3,1.6,2.1
				c2.6,1.6,4.7,4.4,4.1,7.7c-0.2,0.8-1.8,2.2-4.3,2.2c-7-0.1-20.9-3.7-27.1-6.3c-11.3-4.5-23-10-35.3-10.8
				c-10.1-0.7-18.9,3.3-23.6,12.5C164.6,309.9,159.9,330.8,175.8,330.8z"/>
			<path fill="#0C2629" d="M287.6,375l-0.4,1.1c-10,23.1-16.9,28-21,28c-1.1,0-1.3-0.3-1.4-0.5c-1.3-2.2,1.9-10.6,9.7-24.9
				c14.5-26.5,12.4-31.5,3.4-37.9c-4.9-3.5-9-5.2-13-5.2c-6.6,0-12.6,4.6-18.7,14.5c-0.4-3.3-1.8-5.6-3.8-7.8
				c-3.5-4-6.9-5.9-10.6-5.9c-5.4,0-10.9,4.4-18,14.6l0,0c1.2-3.1,1.2-5.7-0.1-7.7c-2.6-4.2-9.6-4.9-15.7-5.5
				c-2.2-0.2-4.3-0.4-5.8-0.8l-1.2-0.2L177,375.1c-6.6,16.3-10.8,26.3-14.3,26.3c-0.2,0-0.3,0-0.7-0.1c-0.2,0-0.4-0.1-0.7-0.5
				c-1.5-3.2,1.5-16.2,14.5-42.8c3.3-6.7,3.8-12.1,1.8-15.8c-1.6-3-4.9-4.6-9.5-5.1c-2.3-0.2-4.9,0-7.1,0.1
				c-2.3,0.1-4.4,0.2-5.6-0.1l-1.1-0.3l-0.4,1c-6.2,14-10.8,26.7-13.5,37.8c-1.9,7.5-16.5,46.8-22.5,46.8h-0.2
				c-1.1-0.1-1.3-0.4-1.5-0.7c-6.5-10.2,22.3-82.6,33.1-109.7c4.2-10.3,4.8-16.9,2.1-21.7c-1.9-3.3-5.4-5.2-10.2-5.8
				c-1.3-0.1-2.6-0.2-4.1-0.2c-2.3,0-4.6,0.2-6.6,0.4c-2.2,0.2-4.3,0.3-5.8,0.2l-2.9-0.2l-1,2.6c-1.2,3.1-2.3,6-3.4,8.9
				c-1.6-5.5-4.7-9.5-9.1-11.9c-3.5-1.9-7.4-2.9-11.5-2.9c-9.9,0-35.2,6.2-55.8,63.3c-17.6,48.8-14.4,72.5-8.6,83.6
				c3.2,6.2,8,10.3,14,12c2,0.5,4.1,0.9,6.2,0.9c15.3,0,27.3-14.7,35.6-29.9c0.1,10.6,2.2,18.3,6.3,23.4c3.3,4.2,7.7,6.5,13.3,7
				c0.5,0,1,0,1.5,0c12.9,0,20.6-12.8,29.9-29.8c1.1,4.6,6.4,6.9,9.7,7.7c0.9,0.2,1.9,0.3,2.7,0.3l0,0c5.6,0,11.2-4,16.8-11.8
				c0.1,2.3,0.8,4.3,1.8,5.7c2.7,4,7.9,4,13,4.1c2.2,0,4.4,0,6.4,0.3l1.1,0.2l8.9-26c10.6-29.3,22.7-41.6,25.7-41.6c0,0,0,0,0.1,0
				c-0.1,1.5-2.5,6.5-5.9,13.3c-3.4,6.9-8.1,16.5-14.4,30.2l-1.6,3.8c-2.1,4.5-2,8.5,0.1,11.9c3.6,5.6,12.8,8.1,19.7,8.1h1.1l7-17.8
				c2.7-6.8,5.2-13.2,7.5-19.5c9.6-21.6,14.3-31.2,17.2-31.2c0.4,0,0.4,0.1,0.4,0.2c0.7,1.1,0.2,6-10.1,25.5
				c-10.7,20.2-9,31-5.6,36.6c2.9,4.7,8,7.4,14.5,7.4c14.1,0,25.5-12.3,38.4-41l0.7-1.4L287.6,375z M59.8,419.2
				c-3.5-7.5,2.1-30.4,16.7-68.2c5.9-15.3,19.8-51,26.7-51c0.5,0,1.1,0.2,1.9,0.5c0.3,0.1,7.5,5.8-8,54.1l-2.9,8.8
				c-17.8,54.4-29.1,57.7-31.5,57.7c-0.4,0-0.8-0.1-1.1-0.2C61,420.8,60.4,420.4,59.8,419.2z"/>
		</g>
	</g>
	<polygon fill="#5D5D5D" points="960,701.4 81.4,701.4 0,622.3 920.4,622.3 	"/>
	<polygon fill="#FFFFFF" points="960,701.4 920.4,625 920.4,21.3 960,117.6 	"/>
	<polygon fill="#50B5DD" points="929.5,685.8 431.8,686.7 384.9,638.7 903.5,637.9 	"/>
	<g>
		<path fill="#F7F5DF" d="M453.8,658.1l15.2,20.3h-7l-5.8-7.8h-5.1l5.8,7.8h-7l-15.2-20.3c-4.6-6.2-2.5-9,2.7-9
			C442.8,649,449.2,651.9,453.8,658.1z M446.8,658c-1.9-2.5-3.7-3.7-5.3-3.7s-1.6,1.2,0.3,3.7l5.6,7.5h5.1L446.8,658z"/>
		<path fill="#F7F5DF" d="M481.3,662.7c9.3,12.1,8,16.2,1.6,16.2c-6.2,0-13.4-4-21.7-15.1c-8.2-11-6.2-14.7-0.2-14.7
			c5.9,0,12.2,3.6,17.7,10.8H472c-3.3-4.3-5.3-5.5-6.9-5.5c-2,0-2.4,1.8,3.4,9.6c5.9,7.9,8.6,9.6,10.6,9.6c1.5,0,2.3-1.2-0.5-5.6
			h-4.1l-3.8-5.2H481.3z"/>
		<path fill="#F7F5DF" d="M485.8,654.7l5.5,7.4h5.8l3.8,5.2h-5.8l4.6,6.2h7.5l3.8,5.2h-14.4l-21.7-29h14.3l3.8,5.2H485.8z"/>
		<path fill="#F7F5DF" d="M516.6,658.8h-6.7c-2.1-3.2-4-4.5-5.5-4.5c-1.4,0-1.3,1.1-0.2,2.6c1.9,2.5,4.6,3.5,8,4.8
			c4.6,1.8,10,4,13.6,8.8c3.7,5.1,2.6,8.2-3.4,8.2c-6.3,0-12.4-3.5-16.6-9.7h6.8c2.3,3.4,4.3,4.5,6,4.5c1.9,0,1.5-1.2,0.5-2.5
			c-1.9-2.4-4.6-3.5-8.6-5.2c-4.5-1.9-9.5-4-13.1-8.8c-3.8-5.2-2.4-8.1,3.3-8.1C506.3,649,511.9,651.9,516.6,658.8z"/>
		<path fill="#F7F5DF" d="M555.8,678.4h-14.2l-3.8-5.2h3.7l-12.6-16.9c0.3,1.2-0.3,1.8-2.1,1.8l-3.7-4.9c1.5,0,2.7-1,0.8-3.5h6.9
			l17.7,23.8h3.6L555.8,678.4z"/>
		<path fill="#F7F5DF" d="M561,673.2h9.5l3.8,5.2h-17l-3.2-4.2c-4.1-5.5-3-8.4-1.5-11.1c0.9-1.5,1.5-3.2-0.7-6.2
			c-1.3-1.8-2.6-2.6-4-2.6c-1.8,0-1.3,1.6,1.6,5.4H543c-5.7-7-4.8-10.7,1.1-10.7c5.4,0,11.3,3.1,15.3,8.4c4,5.3,2.3,7.9,1.2,9.8
			C559.8,669.1,559.3,670.6,561,673.2z"/>
		<path fill="#F7F5DF" d="M569.5,669.3l-3.8-5.2h11.8l3.8,5.2H569.5z"/>
		<path fill="#F7F5DF" d="M602.7,668.8c4.7,6.4,3.6,10-2.3,10c-5.5,0-12-3.1-20.6-14.6c-8.5-11.3-7.3-15.2-1.3-15.2
			c5.6,0,11.4,3.3,16.2,9.9h-6.6c-2.4-3.3-4.4-4.7-5.8-4.7c-1.8,0-1.6,1.8,3.4,8.7c-0.8-1.9-0.3-3.2,2.5-3.2
			C593,659.8,598.7,663.2,602.7,668.8z M596.1,669.3c-1.8-2.4-3.8-4.3-5.7-4.3s-1.2,2.1,0.4,4.4c3.1,3.5,4.7,4.4,6,4.4
			C598.7,673.7,597.9,671.7,596.1,669.3z"/>
		<path fill="#F7F5DF" d="M621.9,663.5c8.6,11.4,7.5,15.4,1.3,15.4c-6.2,0-13.1-3.8-21.7-15.4c-8.6-11.4-6.8-14.4-0.5-14.4
			C607.1,649,613.3,651.9,621.9,663.5z M608.9,663.9c5.9,8,8.6,9.7,10.3,9.7c1.9,0,1.8-1.8-4.2-9.7c-5.9-8-8.6-9.7-10.3-9.8
			C602.9,654.2,602.9,655.9,608.9,663.9z"/>
	</g>
	<polygon fill="#F7F5DF" points="903.5,637.9 929.5,685.8 665.3,686.7 630.9,638.3 	"/>
</g>
</svg>
