<?xml version="1.0" encoding="utf-8"?>
<!-- Generator: Adobe Illustrator 17.1.0, SVG Export Plug-In . SVG Version: 6.00 Build 0)  -->
<!DOCTYPE svg PUBLIC "-//W3C//DTD SVG 1.1//EN" "http://www.w3.org/Graphics/SVG/1.1/DTD/svg11.dtd">
<svg version="1.1" id="Layer_1" xmlns="http://www.w3.org/2000/svg" xmlns:xlink="http://www.w3.org/1999/xlink" x="0px" y="0px"
	 viewBox="108.6 50.9 190.5 135.6" enable-background="new 108.6 50.9 190.5 135.6" xml:space="preserve">
<path fill="#FFFFFF" d="M257.4,114.2c-5.8-0.1-18.7,0.9-42.6-3.3l-0.6-0.1c-7.9-1.3-21.1-3.6-25.5-11c-2.9-6.1-3.3-12.6,0.8-18.2
	l-64.6-30.7c-0.2,0.6-0.5,1.1-0.7,1.7c-6.5,15.8-9.1,32.6-7.8,48.5c1.4,17.4,7.7,33,18.1,45.3c18.8,22,48.1,31.3,69.5,35.1
	c29.7,5.3,48.1,3.8,54.2,3.9c9.9,0.2,20.2,0.4,30.3,1c0.2,0,0.4,0,0.6,0l3.5-71.2C281.4,114.5,269.8,114.3,257.4,114.2z"/>
<g>
	<path fill="#854D76" d="M285.1,178.8c-6.3-0.3-12.9-0.5-20.3-0.5h-0.3c-14.1,0-14.3,0.2-25.4-0.7l4.5-56.2c9.5,0.8,8.3,0.5,21,0.5
		c0.1,0,0.2,0,0.3,0c8.5,0,16,0.2,23.3,0.6L285.1,178.8z"/>
</g>
<g>
	<path fill="#FF3B5C" d="M230.9,176.8c-33.7,0.4-66.8-13.4-82.5-26.7l39.7-40.8c7,5.4,30.3,11.1,49.1,11.4L230.9,176.8z"/>
</g>
<g>
	<path fill="#17CF88" d="M141.5,143c-13.2-14.9-17.9-31.2-17.9-50.8c0-12,2.1-23.1,6.1-33l51.8,22.7c-3.3,7.9-3.4,15.4,1,22.5
		L141.5,143z"/>
</g>
<g>
	<g>
		<polygon fill="#FF3B5C" points="172.9,146.7 157,147.4 145.3,136.5 144.7,120.6 155.6,108.9 171.4,108.3 183.2,119.1 183.8,135 		
			"/>
		<path fill="#FFFFFF" d="M156.4,149.1l-12.7-11.8l-0.7-17.4l11.8-12.7l17.4-0.7l12.7,11.8l0.7,17.4l-11.8,12.7L156.4,149.1z
			 M147,135.7l10.6,9.9l14.5-0.6l9.9-10.6l-0.6-14.5l-10.6-9.9l-14.5,0.6l-9.9,10.6L147,135.7z"/>
	</g>
	<g>
		<g>
			<path fill="#FFFFFF" d="M158.4,123.7l-1.3,1.4c-0.5-0.6-1.5-0.7-2.3,0.2c-0.6,0.6-0.7,1.3-0.2,1.7c0.5,0.5,1.2-0.1,2.2-0.8
				c1.2-0.9,2.8-1.7,4.2-0.4c1.5,1.3,0.9,3.3-0.4,4.7c-1.7,1.9-4,1.9-5.3,0.5l1.4-1.5c0.6,0.6,1.6,0.6,2.5-0.4
				c0.6-0.7,0.8-1.3,0.3-1.7c-0.6-0.6-1.4,0.4-2.5,1c-1.1,0.8-2.6,1.3-3.8,0.1c-1.3-1.3-1.1-3.2,0.3-4.7
				C155,122.1,157,122.2,158.4,123.7z"/>
			<path fill="#FFFFFF" d="M157.6,132.2c-0.9,0-1.7-0.4-2.4-1l-0.1-0.1l1.6-1.7l0.1,0.1c0.2,0.2,0.6,0.4,0.9,0.4
				c0.5,0,0.9-0.3,1.4-0.7c0.3-0.3,0.5-0.6,0.5-0.9c0-0.2,0-0.5-0.2-0.7c-0.4-0.3-0.9,0.1-1.6,0.6c-0.2,0.2-0.5,0.3-0.7,0.5
				c-0.6,0.4-1.4,0.9-2.3,0.9c-0.7,0-1.2-0.3-1.7-0.8c-1.4-1.3-1.3-3.3,0.3-4.9c0.8-0.9,1.7-1.3,2.8-1.3c0.9,0,1.8,0.4,2.5,1.1
				l0.1,0.1l-1.5,1.7l-0.1-0.1c-0.2-0.3-0.6-0.4-0.9-0.4c-0.4,0-0.9,0.2-1.1,0.6c-0.3,0.3-0.5,0.7-0.5,1c0,0.2,0.1,0.4,0.2,0.5
				c0.1,0.1,0.2,0.1,0.3,0.1c0.4,0,0.9-0.4,1.4-0.8l0.3-0.2c0.8-0.6,1.7-1.1,2.7-1.1c0.6,0,1.1,0.3,1.7,0.8c1.6,1.5,0.9,3.6-0.4,4.9
				C159.7,131.6,158.6,132.2,157.6,132.2z M155.5,131.1c0.6,0.6,1.3,0.9,2.1,0.9c1,0,2.1-0.5,2.9-1.4c1.1-1.2,1.9-3.1,0.4-4.5
				c-0.5-0.5-0.9-0.7-1.5-0.7c-0.9,0-1.7,0.6-2.5,1l-0.3,0.2c-0.7,0.5-1.1,0.8-1.6,0.8c-0.2,0-0.4-0.1-0.5-0.2
				c-0.2-0.2-0.3-0.4-0.3-0.7c0-0.4,0.2-0.9,0.6-1.2c0.4-0.4,0.9-0.7,1.3-0.7c0.4,0,0.8,0.1,0.9,0.4l1.1-1.2
				c-0.7-0.7-1.4-0.9-2.2-0.9c-0.9,0-1.8,0.5-2.6,1.2c-1.4,1.5-1.5,3.3-0.3,4.6c0.5,0.5,0.9,0.7,1.5,0.7c0.8,0,1.6-0.5,2.1-0.8
				c0.2-0.2,0.5-0.3,0.7-0.5c0.6-0.4,1-0.8,1.5-0.8c0.2,0,0.4,0.1,0.5,0.2c0.2,0.2,0.3,0.6,0.3,0.9c-0.1,0.4-0.3,0.7-0.6,1
				c-0.5,0.5-1,0.8-1.6,0.8c-0.4,0-0.7-0.1-0.9-0.4L155.5,131.1z"/>
		</g>
		<g>
			<path fill="#FFFFFF" d="M161.7,118l5.5,5l-1.4,1.5l-5.5-5l-2,2.1l-1.5-1.4l5.4-5.8l1.5,1.4L161.7,118z"/>
			<path fill="#FFFFFF" d="M165.8,124.9l-5.5-5l-2,2.1l-1.7-1.6l5.6-6l1.7,1.6l-2,2.2l5.5,5L165.8,124.9z M160.3,119.4l5.5,5
				l1.2-1.3l-5.5-5l2-2.2l-1.3-1.2l-5.2,5.6l1.3,1.2L160.3,119.4z"/>
		</g>
		<g>
			<path fill="#FFFFFF" d="M168.2,131.8c2.5,2.3,2.3,4.7,0.7,6.5s-4,2.1-6.6-0.2c-2.5-2.3-2.3-4.7-0.7-6.5S165.7,129.5,168.2,131.8z
				 M163.8,136.5c1.3,1.2,2.8,1.3,3.5,0.5c0.9-0.9,0.6-2.3-0.8-3.5c-1.3-1.2-2.8-1.3-3.5-0.5C162.3,133.9,162.5,135.2,163.8,136.5z"
				/>
			<path fill="#FFFFFF" d="M165.9,139.9c-1.2,0-2.5-0.6-3.6-1.6c-2.8-2.5-2.1-5.1-0.7-6.6c0.9-0.9,2-1.4,3.1-1.4
				c1.2,0,2.4,0.6,3.6,1.6c2.8,2.6,2.2,5.1,0.7,6.6C168.1,139.3,167.1,139.9,165.9,139.9z M164.7,130.4c-1,0-2.1,0.5-2.9,1.3
				c-0.7,0.8-2.6,3.2,0.7,6.3c1.1,1,2.3,1.5,3.4,1.5c1,0,2.1-0.5,2.9-1.3c2.1-2.3,1-4.7-0.7-6.3C167,130.9,165.8,130.4,164.7,130.4z
				 M166.1,137.7L166.1,137.7c-0.8,0-1.5-0.4-2.3-1c-0.7-0.7-1.1-1.3-1.2-2s0-1.2,0.5-1.7c0.4-0.4,0.9-0.7,1.4-0.7
				c0.8,0,1.5,0.4,2.3,1c1.3,1.2,1.6,2.8,0.8,3.7C167.2,137.4,166.7,137.7,166.1,137.7z M164.5,132.6c-0.5,0-0.9,0.2-1.2,0.6
				c-0.4,0.4-0.6,0.9-0.4,1.5c0.1,0.6,0.5,1.2,1.1,1.8c0.8,0.7,1.4,1,2.1,1l0,0c0.5,0,0.9-0.2,1.2-0.6c0.8-0.9,0.5-2.2-0.8-3.3
				C165.9,132.9,165.2,132.6,164.5,132.6z"/>
		</g>
		<g>
			<path fill="#FFFFFF" d="M168,125.1c1.8-1.9,3.9-2.1,5.5-0.6c1.6,1.5,1.7,3.7-0.1,5.6l-0.6,0.6l1.5,1.4l-1.4,1.5l-7-6.5L168,125.1
				z M172,128.7c0.9-0.9,0.9-1.9,0.1-2.7c-0.7-0.7-1.6-0.7-2.5,0.4l-0.6,0.7l2.5,2.3L172,128.7z"/>
			<path fill="#FFFFFF" d="M173,133.8l-7.2-6.6l2.1-2.2c1-1,2.1-1.7,3.2-1.7c0.9,0,1.7,0.4,2.5,1c0.9,0.8,1.3,1.7,1.3,2.8
				c0,1-0.5,2.1-1.4,3l-0.5,0.5l1.5,1.4L173,133.8z M166.2,127.2l6.7,6.3l1.2-1.3l-1.5-1.4l0.7-0.7c0.9-0.9,1.3-1.9,1.3-2.8
				c0-0.9-0.4-1.8-1.2-2.6c-0.7-0.7-1.5-0.9-2.3-0.9c-1,0-2.1,0.6-3,1.6L166.2,127.2z M171.4,129.4l-2.7-2.5l0.7-0.8
				c0.9-0.9,1.9-1.1,2.8-0.4c0.4,0.4,0.6,0.9,0.6,1.3s-0.3,1-0.7,1.5L171.4,129.4z M169.1,127l2.3,2.1l0.5-0.5
				c0.4-0.4,0.6-0.9,0.6-1.3c0-0.4-0.2-0.9-0.5-1.1c-0.7-0.7-1.5-0.5-2.3,0.4L169.1,127z"/>
		</g>
	</g>
</g>
<g>
	<g>
		<path fill="#FFFFFF" d="M188.2,148.6c3.1,0.9,3.9,1.9,3.5,3.2c-0.4,1.3-1.5,1.8-4.7,0.9c-3.1-0.9-3.8-1.9-3.4-3.2
			C184.1,148.3,185.1,147.8,188.2,148.6z M187.5,151.4c2.2,0.6,2.7,0.5,2.8,0.1c0.1-0.4-0.3-0.8-2.5-1.3c-2.2-0.6-2.8-0.5-2.8-0.1
			C184.9,150.4,185.4,150.8,187.5,151.4z"/>
	</g>
	<g>
		<path fill="#FFFFFF" d="M190.9,147l1.9,0.6l-0.4,1.4l-7.9-2.2l0.3-1.1c0.5-1.8,1.9-2.4,3.7-1.9C190.4,144.3,191.2,145.5,190.9,147
			z M189.6,146.6c0.2-0.6-0.5-1-1.3-1.3c-0.9-0.3-1.6-0.2-1.8,0.5L189.6,146.6z"/>
	</g>
	<g>
		<path fill="#FFFFFF" d="M187.6,141.3l2,0.6l0.4-1.2l1.4,0.4l-0.4,1.2l1.7,0.5l0.5-1.5l1.4,0.4l-0.9,3l-7.9-2.2l0.9-3l1.4,0.4
			L187.6,141.3z"/>
	</g>
	<g>
		<path fill="#FFFFFF" d="M195.5,138.1l-4.1,0.1c-0.2,0-0.5,0-0.7,0l0,0c0.2,0,0.4,0.1,0.7,0.2l3.7,1l-0.4,1.3l-7.9-2.2l0.4-1.2
			l3.9-0.1c0.2,0,0.5,0,0.7,0l0,0c-0.2,0-0.5-0.1-0.7-0.2l-3.5-0.9l0.4-1.3l7.9,2.2L195.5,138.1z"/>
	</g>
	<g>
		<path fill="#FFFFFF" d="M192.1,128.6l5.5,1.5l-0.4,1.4l-2.1-0.6l-0.3,1l2.1,0.6l-0.4,1.4l-5.5-1.5c-1.7-0.5-2.2-1.6-1.9-2.7
			C189.5,128.8,190.5,128.1,192.1,128.6z M191.7,130c-0.7-0.2-1-0.1-1.1,0.3c-0.1,0.3,0.2,0.7,0.9,0.9l2,0.6l0.3-1L191.7,130z"/>
	</g>
	<g>
		<path fill="#FFFFFF" d="M195.5,160.9l-0.4,1.4c-1.4-0.4-1.8-0.4-1.9,0c-0.1,0.4,0.3,0.8,2.5,1.3c2.2,0.6,2.7,0.5,2.8,0.1
			c0.1-0.4-0.2-0.6-1.6-0.9l0.4-1.4c2.4,0.7,2.9,1.6,2.7,2.8c-0.4,1.3-1.6,1.9-4.7,0.9c-3.1-0.9-3.8-2-3.4-3.2
			C192.1,160.8,193.1,160.2,195.5,160.9z"/>
	</g>
	<g>
		<path fill="#FFFFFF" d="M201.6,157.5l-0.4,1.4l-2.8-0.8l-0.3,0.9l2.8,0.8l-0.4,1.4l-7.9-2.2l0.4-1.4l3.6,1l0.3-0.9l-3.6-1l0.4-1.4
			L201.6,157.5z"/>
	</g>
	<g>
		<path fill="#FFFFFF" d="M195.8,153.3l2,0.6l0.4-1.2l1.4,0.4l-0.4,1.2l1.7,0.5l0.5-1.5l1.4,0.4l-0.9,3l-7.9-2.2l0.9-3l1.4,0.4
			L195.8,153.3z"/>
	</g>
	<g>
		<path fill="#FFFFFF" d="M199.3,147.6l-0.4,1.4c-1.4-0.4-1.8-0.4-1.9,0c-0.1,0.4,0.3,0.8,2.5,1.3c2.2,0.6,2.7,0.5,2.8,0.1
			c0.1-0.4-0.2-0.6-1.6-0.9l0.4-1.4c2.4,0.7,2.9,1.6,2.7,2.8c-0.4,1.3-1.6,1.9-4.7,0.9c-3.1-0.9-3.8-2-3.4-3.2
			C195.8,147.5,196.8,146.9,199.3,147.6z"/>
	</g>
	<g>
		<path fill="#FFFFFF" d="M203.6,143.9l1.7,0.5l-0.4,1.4l-1.6-0.5c-0.9-0.2-1.2-0.1-1.3,0.3l-0.1,0.3l2.8,0.8l-0.4,1.4l-7.9-2.2
			l0.4-1.4l3.7,1l0.1-0.2c0.1-0.5-0.1-0.8-0.9-0.9l-2.6-0.7l0.4-1.4l2.6,0.8c0.9,0.3,1.3,0.7,1.5,1.1
			C202,143.7,202.7,143.6,203.6,143.9z"/>
	</g>
	<g>
		<path fill="#FFFFFF" d="M205.5,143.4l-7.9-2.2l0.4-1.4l7.9,2.2L205.5,143.4z"/>
	</g>
	<g>
		<path fill="#FFFFFF" d="M206.9,138.3l-4.1,0.1c-0.2,0-0.5,0-0.7,0l0,0c0.2,0,0.4,0.1,0.7,0.2l3.7,1l-0.4,1.3l-7.9-2.2l0.4-1.2
			l3.9-0.1c0.2,0,0.5,0,0.7,0l0,0c-0.2,0-0.5-0.1-0.7-0.2l-3.5-0.9l0.4-1.3l7.9,2.2L206.9,138.3z"/>
	</g>
	<g>
		<path fill="#FFFFFF" d="M204.5,130.8c3.3,0.9,4.2,2.1,3.8,3.4c-0.4,1.3-1.7,1.9-4.7,1c-3-0.9-3.7-2.1-3.3-3.3
			c0.4-1.2,1.5-1.7,3.5-1.2l-0.4,1.4c-1.1-0.3-1.5-0.2-1.6,0.2c-0.1,0.4,0.3,0.9,2.4,1.5c2.2,0.6,2.7,0.5,2.8,0
			c0.1-0.3-0.1-0.8-1.3-1.1l-0.3,0.9l-1.4-0.4L204.5,130.8z"/>
	</g>
	<g>
		<path fill="#FFFFFF" d="M209.5,123.6l1.4,0.4c-0.1,0.6-0.4,1-0.8,1.4c0.2,0.5,0.2,1,0.1,1.6c-0.4,1.3-1.5,2.1-2.9,1.7
			c-0.9-0.3-1.4-0.9-1.7-1.6c-0.6,0-1.1,0-1.7-0.2c-1.4-0.4-2-1.4-1.7-2.5c0.3-1,1.2-1.5,2.3-1.2c1.1,0.3,1.5,1.3,1.9,2.3
			c0.6-0.1,1.1-0.3,1.6-0.5c-0.4-0.2-0.9-0.4-1.5-0.6l0.4-1.3c1,0.2,1.9,0.6,2.5,1C209.4,124.1,209.5,123.9,209.5,123.6z
			 M205.1,125.8c-0.2-0.5-0.4-0.9-0.9-1c-0.3-0.1-0.6,0-0.7,0.3c-0.1,0.3,0.2,0.5,0.7,0.7C204.5,125.7,204.8,125.8,205.1,125.8z
			 M208.9,126.4c-0.6,0.3-1.2,0.6-1.9,0.7c0.2,0.2,0.4,0.3,0.7,0.4c0.7,0.2,1-0.2,1.2-0.7C208.9,126.7,208.9,126.5,208.9,126.4z"/>
	</g>
	<g>
		<path fill="#FFFFFF" d="M207.4,157.9l-0.4,1.4c-0.9-0.3-1.2-0.2-1.3,0.1c-0.1,0.3,0.2,0.6,0.6,0.7c0.7,0.2,1-0.1,1.6-0.6
			c0.7-0.6,1.5-1.1,2.8-0.9c1.3,0.4,2,1.3,1.7,2.7c-0.4,1.3-1.5,1.8-3.2,1.2l0.4-1.4c0.9,0.3,1.3,0.2,1.4-0.2
			c0.1-0.4-0.2-0.6-0.6-0.7c-0.7-0.2-1,0.2-1.7,0.7c-0.7,0.6-1.4,1-2.8,0.7c-1.4-0.4-2-1.3-1.6-2.6
			C204.6,157.7,205.5,157.3,207.4,157.9z"/>
	</g>
	<g>
		<path fill="#FFFFFF" d="M208.5,153.3l5.5,1.5l-0.4,1.4l-2.1-0.6l-0.3,1l2.1,0.6l-0.4,1.4l-5.5-1.5c-1.7-0.5-2.2-1.6-1.9-2.7
			C205.8,153.5,206.8,152.8,208.5,153.3z M208,154.7c-0.7-0.2-1-0.1-1.1,0.3c-0.1,0.3,0.2,0.7,0.9,0.9l2,0.6l0.3-1L208,154.7z"/>
	</g>
	<g>
		<path fill="#FFFFFF" d="M214.9,151.6l-0.5,1.5l-8.3-0.8l0.5-1.5l5.7,0.9l-5.4-2.2l0.5-1.5L214.9,151.6z"/>
	</g>
	<g>
		<path fill="#FFFFFF" d="M215.4,149.6l-7.9-2.2l0.4-1.4l7.9,2.2L215.4,149.6z"/>
	</g>
	<g>
		<path fill="#FFFFFF" d="M216.8,144.4l-4.1,0.1c-0.2,0-0.5,0-0.7,0l0,0c0.2,0,0.4,0.1,0.7,0.2l3.7,1l-0.4,1.3l-7.9-2.2l0.4-1.2
			l3.9-0.1c0.2,0,0.5,0,0.7,0l0,0c-0.2,0-0.5-0.1-0.7-0.2l-3.5-0.9l0.4-1.3l7.9,2.2L216.8,144.4z"/>
	</g>
	<g>
		<path fill="#FFFFFF" d="M214.3,136.9c3.3,0.9,4.2,2.1,3.8,3.4c-0.4,1.3-1.7,1.9-4.7,1c-3-0.9-3.7-2.1-3.3-3.3
			c0.4-1.2,1.5-1.7,3.5-1.2l-0.4,1.4c-1.1-0.3-1.5-0.2-1.6,0.2c-0.1,0.4,0.3,0.9,2.4,1.5c2.2,0.6,2.7,0.5,2.8,0
			c0.1-0.3-0.1-0.8-1.3-1.1l-0.3,0.9l-1.4-0.4L214.3,136.9z"/>
	</g>
	<g>
		<path fill="#FFFFFF" d="M214.5,132.4l-0.4,1.4c-0.9-0.3-1.2-0.2-1.3,0.1c-0.1,0.3,0.2,0.6,0.6,0.7c0.7,0.2,1-0.1,1.6-0.6
			c0.7-0.6,1.5-1.1,2.8-0.9c1.3,0.4,2,1.3,1.7,2.7c-0.4,1.3-1.5,1.8-3.2,1.2l0.4-1.4c0.9,0.3,1.3,0.2,1.4-0.2
			c0.1-0.4-0.2-0.6-0.6-0.7c-0.7-0.2-1,0.2-1.7,0.7c-0.7,0.6-1.4,1-2.8,0.7c-1.4-0.4-2-1.3-1.6-2.6
			C211.7,132.3,212.6,131.7,214.5,132.4z"/>
	</g>
	<g>
		<path fill="#FFFFFF" d="M217.6,162.1l5.5,1.5l-0.4,1.4l-2.1-0.6l-0.3,1l2.1,0.6l-0.4,1.4l-5.5-1.5c-1.7-0.5-2.2-1.5-1.9-2.7
			C214.9,162.3,215.9,161.6,217.6,162.1z M217.2,163.5c-0.7-0.2-1-0.1-1.1,0.3c-0.1,0.3,0.2,0.6,0.9,0.9l2,0.6l0.3-1L217.2,163.5z"
			/>
	</g>
	<g>
		<path fill="#FFFFFF" d="M219.7,157.5l-0.4,1.4c-1.4-0.4-1.8-0.4-1.9,0s0.3,0.8,2.5,1.3c2.2,0.6,2.7,0.5,2.8,0.1
			c0.1-0.4-0.2-0.6-1.6-0.9l0.4-1.4c2.4,0.7,2.9,1.6,2.7,2.8c-0.4,1.3-1.6,1.9-4.7,0.9c-3.1-0.9-3.8-2-3.4-3.2
			C216.2,157.5,217.2,156.9,219.7,157.5z"/>
	</g>
	<g>
		<path fill="#FFFFFF" d="M220.9,152.9l-0.4,1.4c-1.4-0.4-1.8-0.4-1.9,0c-0.1,0.4,0.3,0.8,2.5,1.3s2.7,0.5,2.8,0.1
			c0.1-0.4-0.2-0.6-1.6-0.9l0.4-1.4c2.4,0.7,2.9,1.6,2.7,2.8c-0.4,1.3-1.6,1.9-4.7,0.9c-3.1-0.9-3.8-2-3.4-3.2
			C217.6,152.8,218.5,152.2,220.9,152.9z"/>
	</g>
	<g>
		<path fill="#FFFFFF" d="M223.1,148.3c3.1,0.9,3.9,1.9,3.5,3.2c-0.4,1.3-1.5,1.8-4.7,0.9s-3.8-1.9-3.4-3.2
			C218.9,148.1,220,147.5,223.1,148.3z M222.3,151.1c2.2,0.6,2.7,0.5,2.8,0.1c0.1-0.4-0.3-0.8-2.5-1.3s-2.8-0.5-2.8-0.1
			C219.8,150.1,220.2,150.5,222.3,151.1z"/>
	</g>
	<g>
		<path fill="#FFFFFF" d="M226,144.3c1.8,0.5,2.2,1.5,1.9,2.7c-0.3,1-1.1,1.8-2.9,1.2l-5.5-1.5l0.4-1.4l5.7,1.6
			c0.6,0.2,0.9,0.1,0.9-0.3c0.1-0.3-0.2-0.6-0.7-0.8l-5.7-1.6l0.4-1.4L226,144.3z"/>
	</g>
	<g>
		<path fill="#FFFFFF" d="M229.4,141.3l-4.1,0.1c-0.2,0-0.5,0-0.7,0l0,0c0.2,0,0.4,0.1,0.7,0.2l3.7,1l-0.4,1.3l-7.9-2.2l0.4-1.2
			l3.9-0.1c0.2,0,0.5,0,0.7,0l0,0c-0.2,0-0.5-0.1-0.7-0.2l-3.5-0.9l0.4-1.3l7.9,2.2L229.4,141.3z"/>
	</g>
	<g>
		<path fill="#FFFFFF" d="M224.1,135l6.5,1.8l-0.4,1.4l-6.5-1.8l-0.4,1.2l-1.4-0.4l1.1-4l1.4,0.4L224.1,135z"/>
	</g>
</g>
</svg>
