<?xml version="1.0" encoding="utf-8"?>
<!-- Generator: Adobe Illustrator 17.1.0, SVG Export Plug-In . SVG Version: 6.00 Build 0)  -->
<!DOCTYPE svg PUBLIC "-//W3C//DTD SVG 1.1//EN" "http://www.w3.org/Graphics/SVG/1.1/DTD/svg11.dtd">
<svg version="1.1" id="Layer_1" xmlns="http://www.w3.org/2000/svg" xmlns:xlink="http://www.w3.org/1999/xlink" x="0px" y="0px"
	 viewBox="102.6 45.6 393 184.5" enable-background="new 102.6 45.6 393 184.5" xml:space="preserve">
<path fill="#FFFFFF" d="M184.2,201.6c7-6,19.3-6.4,28.2-6.7h0.5c1.6-0.1,3.3-0.1,4.9-0.1c27.7,0,54.4,8.2,80.1,16.1
	c5.3,1.6,10.8,3.3,16.3,4.9c12.4,3.7,31.8,8,53.6,8c19.8,0,37-3.7,51-10.9c16.3-8.5,27.9-21.6,34.4-39c5.1-13.9,6.4-29.8,3.6-47.6
	l-0.8-5.3l-69-0.1l0.8,3.1c2,8.6,5.3,23.1-4,26.2c-5,1.7-10.4,2.6-16.3,2.6c-8.5,0-17.2-1.7-24.6-3.4c-8.7-2-17.5-4.9-25.9-7.8
	c-6.1-2-12.3-4.1-18.6-5.9c-12.5-3.5-24.2-6.2-35.8-8.3c-15-2.7-30.5-4.1-44.7-4.1c-65.1,0.1-91.1,27.3-101.3,50.8l64.6,30.7
	C182,203.7,183,202.6,184.2,201.6z"/>
<g>
	<path fill="#FF3B5C" d="M368.7,217.1L368.7,217.1c-11.8,0-24.7-1.6-38.4-4.7l12.6-55c9.5,2.2,18.1,3.3,25.6,3.3l0,0
		c6.1,0,9.6-0.2,13.8-1.6l19.8,52.9C392.2,215.4,380.9,217.1,368.7,217.1z"/>
</g>
<g>
	<path fill="#854D76" d="M321.1,210.1c-6.2-1.7-12.5-3.7-19-6c-12-4.1-23.6-7.5-34.8-10.1l13-54.9c12.9,3,26.4,6.9,40.2,11.7
		l0.3,0.1c5.2,1.8,10.4,3.4,15.3,4.7L321.1,210.1z"/>
</g>
<g>
	<path fill="#17CF88" d="M412.6,207.2l-22.9-51.4c7.7-5,9.2-16.9,6.9-27.2l53,0.1c0.8,4.9,1,9.8,1.1,14.4
		C451,174.8,436.4,195.6,412.6,207.2z"/>
</g>
<g>
	<path fill="#50B5DD" d="M176.7,198.9l-50.4-26.6c17.4-29.2,48.7-37.7,70.9-40.3l6.6,56C193.7,189.3,180.9,192.1,176.7,198.9z"/>
</g>
<g>
	<path fill="#DD7C3C" d="M259.8,192.3c-15.7-3.3-30-4.9-42.5-4.9c-2.4,0-4.7,0.1-6.8,0.2l-3-56.3c3.2-0.2,6.6-0.3,9.9-0.3
		c16.4,0,34.7,2.1,54.1,6.2L259.8,192.3z"/>
</g>
<g>
	<g>
		<path fill="#17CF88" d="M382.4,76.2h-9.5c0.3-4-0.3-5.7-1.6-5.7c-1,0-1.5,1.1-1.5,2.8c0,3.4,1.9,4.7,4.7,6.6
			c3.9,2.7,8.5,6.1,8.5,13.9c0,8.3-4.7,13.3-12.3,13.3c-8,0-12.3-5.6-11.9-15.4h9.8c-0.2,4.7,0.7,5.8,2.1,5.8c1.5,0,1.9-1.3,1.9-2.7
			c0-3.2-2.3-4.6-5.5-7.1c-3.7-2.8-7.7-6.5-7.7-13.9c0-8.5,4.6-13,11.8-13C378.6,60.9,383,65.2,382.4,76.2z"/>
	</g>
	<g>
		<path fill="#17CF88" d="M400,71.1v35.3h-10V71.1h-6.7v-9.7h23.5v9.7L400,71.1z"/>
	</g>
	<g>
		<path fill="#17CF88" d="M432.9,74.4v32.1h-10V95.2h-4.1v11.2h-10.1V74.4c0-9.2,5.4-13.6,12-13.6C427.4,60.8,432.8,65.1,432.9,74.4
			z M422.9,74.3c0-2.4-0.7-3.9-2.1-3.9s-2.1,1.5-2.1,3.9v11.5h4.1L422.9,74.3z"/>
	</g>
	<g>
		<path fill="#17CF88" d="M448.4,95.2c-0.4,0.1-0.9,0.1-1.2,0.1v11.2h-10v-45h6.2c12.6,0,17,7.4,17,16.4c0,5.8-1.5,10.1-3.9,12.8
			l4,15.7h-9.9L448.4,95.2z M447.2,85.6c2.6,0,3-3.3,3-7.7c0-4.7-0.7-6.8-3-6.8V85.6z"/>
	</g>
	<g>
		<path fill="#17CF88" d="M478.4,71v35.3h-10V71h-6.7v-9.7h23.5V71H478.4z"/>
	</g>
</g>
<g>
	<g>
		<path fill="#FFFFFF" d="M408.2,155.5l-4.3-0.3L403,170l4.3,0.3c4.7,0.3,8-2.4,8.3-6.8C415.8,158.9,412.9,155.8,408.2,155.5z
			 M410.7,163c-0.1,1.6-1.1,2.6-2.8,2.6l0.4-5.5C409.6,160.4,410.8,161.2,410.7,163z"/>
	</g>
	<g>
		<path fill="#FFFFFF" d="M423.1,156.6c-3.8-0.2-6.4,2.1-6.6,6l-0.5,8.2l4.7,0.3l0.2-2.8l3.1,0.2l-0.2,2.8l4.7,0.3l0.5-8.2
			C429.1,159.4,426.9,156.8,423.1,156.6z M424.2,163l-0.1,1.1L421,164l0.1-1.1c0-0.6,0.3-1.8,1.6-1.7
			C424.2,161.2,424.2,162.5,424.2,163z"/>
	</g>
	<g>
		<path fill="#FFFFFF" d="M438.1,155.8l-0.4,6.7c-0.1,1.2-0.6,1.8-1.6,1.7c-1-0.1-1.5-0.7-1.4-1.9l0.3-4.2l-4.7-0.3l-0.3,4.2
			c-0.2,3,1,5.3,3.5,6.3l-0.2,3.4l4.7,0.3l0.2-3.4c2.5-0.7,4.1-2.8,4.2-5.8l0.4-6.7L438.1,155.8z"/>
	</g>
	<g>
		<path fill="#FFFFFF" d="M406.9,147.6h0.2l0.8-1.3h-0.7c0,0-0.5-0.5,1.1-4.4c1.4-3.7,3.4-5.3,6.1-5.1c1,0.1,1.7,0.3,2,0.8
			c0.5,0.8,0.3,2.2-0.8,5.3c-1.2,3.7-1.9,4.2-2.4,4.2c-0.1,0-0.1,0-0.1,0c-0.2-0.2,0.3-1.6,0.7-2.8c0.1-0.3,0.2-0.6,0.3-0.9l0.7-1.8
			c0.3-0.7,0.1-1.1-0.1-1.4c-0.6-0.9-2.1-1.2-2.9-1.3h-0.3l-4.3,10.2c-0.8,2.1-0.9,3.5-0.4,4.4c0.5,0.9,1.4,1,2.4,1.1l0.4,0.1
			l2.8-6.6c0,0.5,0.2,0.9,0.4,1.1c0.3,0.4,0.7,0.5,1.2,0.5c1.1,0,4.2-0.6,6.1-6.3c1.1-3.1,1.1-5.4,0.2-6.8c-0.8-1.1-2.1-1.7-4-1.8
			c-0.1,0-0.2,0-0.3,0c-4.5-0.2-8.9,2.7-11.1,7.1c-1.1,2.2-1.3,3.8-0.8,4.8c0.5,0.8,1.2,1.1,2.5,1.2
			C406.7,147.6,406.8,147.6,406.9,147.6z"/>
	</g>
	<g>
		<path fill="#FFFFFF" d="M432.7,156.4c2.2,0,5.1-1.8,6.9-6.9l3.7-10.2c0.4-1,0.2-1.7,0-2.1c-0.3-0.5-0.8-0.8-1.4-0.8
			c-0.4,0-0.8,0-1,0c-0.3,0-0.5,0-0.7,0l-0.3-0.1l-2.3,6.3c-1.2,3.3-2,4.7-2.7,4.6c0,0-0.1,0-0.2,0s-0.1,0-0.1-0.1
			c-0.3-0.5,0.8-2.7,2.3-6c0.3-0.6,0.6-1.1,0.9-1.8c0.5-1,0.6-1.8,0.3-2.4c-0.2-0.3-0.5-0.7-1.2-0.8c-0.1,0-0.2,0-0.3,0
			c-0.4,0-1.1,0-1.7,0.3l-0.1,0.1l-0.1,0.1c-1.1,2.7-2,4.7-2.5,6.6c-1.6,3.4-2.2,3.4-2.5,3.4c-0.1,0-0.1,0-0.1,0
			c-0.4-0.7,1.6-5.1,2.5-7.3c0.5-0.9,0.6-1.8,0.3-2.3c-0.2-0.4-0.7-0.7-1.2-0.8c-0.4,0-0.8,0-1,0c-0.3,0-0.5,0-0.7,0l-0.3-0.1
			l-0.1,0.3c-0.1,0.2-0.1,0.3-0.2,0.5c-0.3-0.5-0.7-0.8-1-0.9c-0.3-0.1-0.6-0.1-0.9-0.2c-1.3-0.1-3.8,0.5-5.5,5
			c-2.1,5.5-1.1,8.2,0.4,8.8c0.3,0.1,0.6,0.2,0.9,0.2c0.9,0.1,2.4-0.3,3.9-3c0.3,1.4,1,1.9,1.8,2.1c1.2,0.2,2.2-0.2,3.2-1.6
			c0,0.5,0.1,0.8,0.3,1.1c0.3,0.6,0.8,0.9,1.4,1c0.8,0.2,1.4-0.1,2.2-0.8l-0.7,1.9c-0.9,2.2-1.7,4.2-2.5,4.2h-0.1
			c-0.4,0-0.7-0.2-0.9-0.5c-0.2-0.3-0.2-0.8,0.1-1.2c0.1-0.2,0.2-0.3,0.3-0.3c0.5-0.1,1-0.6,0.9-1.4c-0.1-0.9-1.2-1.1-2.2-1.2
			c-6.2-0.4-10,2.4-13.3,2.2c0,0-0.9-0.1-0.9-0.7c0-0.5,0.6-0.8,1.1-0.9c-0.1-0.6-1.3-0.7-1.8-0.6c-1.1,0.2-2,0.9-2.3,1.7
			c-0.7,1.9,0.6,3.4,2.8,3.6c5,0.6,9.3-2.9,14.1-3.4c0,0.1-0.1,0.1-0.1,0.2c-0.4,0.9-0.3,1.9,0.2,2.7c0.5,0.8,1.3,1.2,2.5,1.3
			C432.5,156.4,432.6,156.4,432.7,156.4z M423.9,147.3L423.9,147.3c-0.5-0.2-0.1-1.7,1.2-5c0.4-0.9,1.5-3.9,2.2-3.8c0,0,0.1,0,0.2,0
			c0.3,0.1,0.1,0.9-0.5,2.8c0,0.1-0.1,0.3-0.2,0.5c-0.1,0.4-0.3,0.9-0.4,1C424.9,147.2,424,147.3,423.9,147.3z"/>
	</g>
</g>
<g>
	<polygon fill="#854D76" points="320.6,190.6 329,181.2 325.3,169.8 336.8,174.3 346.3,167.8 345.9,179.6 354.8,187.3 343.6,189.8 
		338.9,201.3 333.1,190.9 	"/>
	<path fill="#FFFFFF" d="M339.1,205l-6.9-12.6l-15-0.4l10-11.2l-4.5-13.7l14,5.3l11.5-7.8l-0.7,14.1l10.8,9.2l-13.6,3L339.1,205z
		 M324.1,189.1l10,0.2l4.7,8.4l3.7-9.2l9-2.1l-7.2-6.1l0.4-9.4L337,176l-9.2-3.5l2.9,9.1L324.1,189.1z"/>
</g>
</svg>
